<svg version="1.1" xmlns="http://www.w3.org/2000/svg" viewBox="0 0 870.8647670908294 771.2185898769114" width="1741.729534181659" height="1542.4371797538229">
  <!-- svg-source:excalidraw -->
  
  <defs>
    <style class="style-fonts">
      @font-face {
        font-family: "Virgil";
        src: url("https://excalidraw.com/Virgil.woff2");
      }
      @font-face {
        font-family: "Cascadia";
        src: url("https://excalidraw.com/Cascadia.woff2");
      }
    </style>
    
  </defs>
  <rect x="0" y="0" width="870.8647670908294" height="771.2185898769114" fill="#ffffff"></rect><g stroke-linecap="round" transform="translate(419.4270390188294 355.4056609124765) rotate(0 212.71619177270668 202.90646448221747)"><path d="M425.43 202.91 C425.43 207.52, 425.27 212.15, 424.94 216.75 C424.61 221.36, 424.11 225.96, 423.45 230.54 C422.79 235.11, 421.97 239.67, 420.98 244.19 C420 248.71, 418.85 253.21, 417.54 257.65 C416.24 262.09, 414.77 266.51, 413.15 270.86 C411.53 275.2, 409.75 279.51, 407.82 283.74 C405.89 287.98, 403.81 292.16, 401.58 296.26 C399.36 300.35, 396.98 304.39, 394.47 308.33 C391.95 312.28, 389.29 316.15, 386.5 319.92 C383.71 323.69, 380.78 327.38, 377.72 330.96 C374.67 334.54, 371.48 338.03, 368.18 341.4 C364.87 344.77, 361.44 348.05, 357.91 351.2 C354.37 354.35, 350.71 357.39, 346.96 360.3 C343.21 363.22, 339.34 366.01, 335.39 368.67 C331.43 371.34, 327.37 373.88, 323.24 376.27 C319.11 378.67, 314.88 380.94, 310.58 383.06 C306.28 385.19, 301.9 387.18, 297.46 389.01 C293.02 390.85, 288.51 392.55, 283.95 394.1 C279.39 395.64, 274.77 397.04, 270.11 398.29 C265.45 399.53, 260.73 400.63, 255.99 401.57 C251.26 402.51, 246.47 403.29, 241.68 403.92 C236.89 404.55, 232.06 405.02, 227.23 405.34 C222.4 405.65, 217.55 405.81, 212.72 405.81 C207.88 405.81, 203.03 405.65, 198.2 405.34 C193.37 405.02, 188.55 404.55, 183.75 403.92 C178.96 403.29, 174.18 402.51, 169.44 401.57 C164.7 400.63, 159.99 399.53, 155.33 398.29 C150.67 397.04, 146.04 395.64, 141.48 394.1 C136.92 392.55, 132.41 390.85, 127.97 389.01 C123.53 387.18, 119.15 385.19, 114.85 383.06 C110.56 380.94, 106.33 378.67, 102.19 376.27 C98.06 373.88, 94 371.34, 90.05 368.67 C86.09 366.01, 82.23 363.22, 78.47 360.3 C74.72 357.39, 71.06 354.35, 67.53 351.2 C63.99 348.05, 60.56 344.77, 57.26 341.4 C53.95 338.03, 50.76 334.54, 47.71 330.96 C44.66 327.38, 41.72 323.69, 38.93 319.92 C36.14 316.15, 33.48 312.28, 30.97 308.33 C28.45 304.39, 26.07 300.35, 23.85 296.26 C21.62 292.16, 19.54 287.98, 17.61 283.74 C15.68 279.51, 13.9 275.2, 12.28 270.86 C10.66 266.51, 9.19 262.09, 7.89 257.65 C6.58 253.21, 5.43 248.71, 4.45 244.19 C3.46 239.67, 2.64 235.11, 1.98 230.54 C1.32 225.96, 0.83 221.36, 0.5 216.75 C0.17 212.15, 0 207.52, 0 202.91 C0 198.29, 0.17 193.66, 0.5 189.06 C0.83 184.45, 1.32 179.85, 1.98 175.28 C2.64 170.7, 3.46 166.14, 4.45 161.62 C5.43 157.1, 6.58 152.61, 7.89 148.16 C9.19 143.72, 10.66 139.31, 12.28 134.96 C13.9 130.61, 15.68 126.3, 17.61 122.07 C19.54 117.83, 21.62 113.65, 23.85 109.56 C26.07 105.46, 28.45 101.42, 30.97 97.48 C33.48 93.54, 36.14 89.67, 38.93 85.89 C41.72 82.12, 44.66 78.44, 47.71 74.85 C50.76 71.27, 53.95 67.79, 57.26 64.41 C60.56 61.04, 63.99 57.77, 67.53 54.62 C71.06 51.46, 74.72 48.42, 78.47 45.51 C82.23 42.6, 86.09 39.8, 90.05 37.14 C94 34.48, 98.06 31.94, 102.19 29.54 C106.33 27.14, 110.56 24.87, 114.85 22.75 C119.15 20.63, 123.53 18.64, 127.97 16.8 C132.41 14.96, 136.92 13.26, 141.48 11.72 C146.04 10.17, 150.67 8.77, 155.33 7.52 C159.99 6.28, 164.7 5.18, 169.44 4.24 C174.18 3.3, 178.96 2.52, 183.75 1.89 C188.55 1.26, 193.37 0.79, 198.2 0.47 C203.03 0.16, 207.88 0, 212.72 0 C217.55 0, 222.4 0.16, 227.23 0.47 C232.06 0.79, 236.89 1.26, 241.68 1.89 C246.47 2.52, 251.26 3.3, 255.99 4.24 C260.73 5.18, 265.45 6.28, 270.11 7.52 C274.77 8.77, 279.39 10.17, 283.95 11.72 C288.51 13.26, 293.02 14.96, 297.46 16.8 C301.9 18.64, 306.28 20.63, 310.58 22.75 C314.88 24.87, 319.11 27.14, 323.24 29.54 C327.37 31.94, 331.43 34.48, 335.39 37.14 C339.34 39.8, 343.21 42.6, 346.96 45.51 C350.71 48.42, 354.37 51.46, 357.91 54.62 C361.44 57.77, 364.87 61.04, 368.18 64.41 C371.48 67.79, 374.67 71.27, 377.72 74.85 C380.78 78.44, 383.71 82.12, 386.5 85.89 C389.29 89.67, 391.95 93.54, 394.47 97.48 C396.98 101.42, 399.36 105.46, 401.58 109.56 C403.81 113.65, 405.89 117.83, 407.82 122.07 C409.75 126.3, 411.53 130.61, 413.15 134.96 C414.77 139.31, 416.24 143.72, 417.54 148.16 C418.85 152.61, 420 157.1, 420.98 161.62 C421.97 166.14, 422.79 170.7, 423.45 175.28 C424.11 179.85, 424.61 184.45, 424.94 189.06 C425.27 193.66, 425.43 198.29, 425.43 202.91" stroke="#e03131" stroke-width="1.5" fill="none" stroke-dasharray="8 9"></path></g><g transform="translate(515.5301721726346 542.2355884127306) rotate(0 116.69999694824219 16.100000000000023)"><text x="116.69999694824219" y="0" font-family="Helvetica, Segoe UI Emoji" font-size="28px" fill="#e03131" text-anchor="middle" style="white-space: pre;" direction="ltr" dominant-baseline="text-before-edge">Management Keys</text></g><g stroke-linecap="round" transform="translate(395.16087151077863 9.999999999999972) rotate(0 232.8519477900254 215.29769895441385)"><path d="M465.7 215.3 C465.7 219.99, 465.54 224.7, 465.21 229.38 C464.87 234.06, 464.37 238.75, 463.71 243.4 C463.05 248.05, 462.22 252.7, 461.23 257.3 C460.24 261.9, 459.08 266.49, 457.77 271.02 C456.46 275.55, 454.98 280.06, 453.35 284.5 C451.71 288.95, 449.92 293.35, 447.98 297.69 C446.04 302.02, 443.94 306.31, 441.69 310.52 C439.45 314.73, 437.05 318.88, 434.51 322.95 C431.97 327.01, 429.28 331.01, 426.46 334.91 C423.64 338.81, 420.68 342.64, 417.59 346.36 C414.5 350.09, 411.27 353.72, 407.92 357.25 C404.57 360.78, 401.09 364.22, 397.5 367.54 C393.91 370.86, 390.2 374.07, 386.38 377.17 C382.57 380.26, 378.63 383.25, 374.6 386.1 C370.58 388.96, 366.44 391.7, 362.22 394.31 C358 396.92, 353.67 399.4, 349.28 401.75 C344.88 404.1, 340.39 406.32, 335.84 408.39 C331.29 410.47, 326.65 412.41, 321.96 414.21 C317.27 416, 312.51 417.66, 307.7 419.17 C302.89 420.68, 298.02 422.04, 293.12 423.26 C288.22 424.47, 283.26 425.54, 278.28 426.46 C273.3 427.37, 268.28 428.14, 263.25 428.75 C258.21 429.37, 253.15 429.83, 248.08 430.13 C243.02 430.44, 237.93 430.6, 232.85 430.6 C227.78 430.6, 222.69 430.44, 217.62 430.13 C212.56 429.83, 207.49 429.37, 202.46 428.75 C197.43 428.14, 192.4 427.37, 187.42 426.46 C182.45 425.54, 177.49 424.47, 172.59 423.26 C167.68 422.04, 162.81 420.68, 158 419.17 C153.2 417.66, 148.43 416, 143.74 414.21 C139.05 412.41, 134.42 410.47, 129.86 408.39 C125.31 406.32, 120.82 404.1, 116.43 401.75 C112.03 399.4, 107.71 396.92, 103.49 394.31 C99.27 391.7, 95.13 388.96, 91.1 386.1 C87.07 383.25, 83.14 380.26, 79.32 377.17 C75.51 374.07, 71.79 370.86, 68.2 367.54 C64.61 364.22, 61.13 360.78, 57.78 357.25 C54.44 353.72, 51.21 350.09, 48.12 346.36 C45.03 342.64, 42.06 338.81, 39.24 334.91 C36.42 331.01, 33.73 327.01, 31.2 322.95 C28.66 318.88, 26.26 314.73, 24.01 310.52 C21.77 306.31, 19.67 302.02, 17.72 297.69 C15.78 293.35, 13.99 288.95, 12.36 284.5 C10.73 280.06, 9.25 275.55, 7.93 271.02 C6.62 266.49, 5.46 261.9, 4.47 257.3 C3.48 252.7, 2.65 248.05, 1.99 243.4 C1.33 238.75, 0.83 234.06, 0.5 229.38 C0.17 224.7, 0 219.99, 0 215.3 C0 210.6, 0.17 205.9, 0.5 201.22 C0.83 196.53, 1.33 191.85, 1.99 187.2 C2.65 182.54, 3.48 177.9, 4.47 173.3 C5.46 168.69, 6.62 164.11, 7.93 159.57 C9.25 155.04, 10.73 150.54, 12.36 146.09 C13.99 141.65, 15.78 137.24, 17.72 132.91 C19.67 128.57, 21.77 124.28, 24.01 120.07 C26.26 115.86, 28.66 111.71, 31.2 107.65 C33.73 103.58, 36.42 99.59, 39.24 95.68 C42.06 91.78, 45.03 87.96, 48.12 84.23 C51.21 80.51, 54.44 76.87, 57.78 73.34 C61.13 69.81, 64.61 66.38, 68.2 63.06 C71.79 59.74, 75.51 56.52, 79.32 53.43 C83.14 50.33, 87.07 47.35, 91.1 44.49 C95.13 41.63, 99.27 38.89, 103.49 36.28 C107.71 33.68, 112.03 31.19, 116.43 28.84 C120.82 26.5, 125.31 24.28, 129.86 22.2 C134.42 20.13, 139.05 18.18, 143.74 16.39 C148.43 14.59, 153.2 12.93, 158 11.43 C162.81 9.92, 167.68 8.55, 172.59 7.34 C177.49 6.12, 182.45 5.05, 187.42 4.14 C192.4 3.22, 197.43 2.45, 202.46 1.84 C207.49 1.23, 212.56 0.77, 217.62 0.46 C222.69 0.15, 227.78 0, 232.85 0 C237.93 0, 243.02 0.15, 248.08 0.46 C253.15 0.77, 258.21 1.23, 263.25 1.84 C268.28 2.45, 273.3 3.22, 278.28 4.14 C283.26 5.05, 288.22 6.12, 293.12 7.34 C298.02 8.55, 302.89 9.92, 307.7 11.43 C312.51 12.93, 317.27 14.59, 321.96 16.39 C326.65 18.18, 331.29 20.13, 335.84 22.2 C340.39 24.28, 344.88 26.5, 349.28 28.84 C353.67 31.19, 358 33.68, 362.22 36.28 C366.44 38.89, 370.58 41.63, 374.6 44.49 C378.63 47.35, 382.57 50.33, 386.38 53.43 C390.2 56.52, 393.91 59.74, 397.5 63.06 C401.09 66.38, 404.57 69.81, 407.92 73.34 C411.27 76.87, 414.5 80.51, 417.59 84.23 C420.68 87.96, 423.64 91.78, 426.46 95.68 C429.28 99.59, 431.97 103.58, 434.51 107.65 C437.05 111.71, 439.45 115.86, 441.69 120.07 C443.94 124.28, 446.04 128.57, 447.98 132.91 C449.92 137.24, 451.71 141.65, 453.35 146.09 C454.98 150.54, 456.46 155.04, 457.77 159.57 C459.08 164.11, 460.24 168.69, 461.23 173.3 C462.22 177.9, 463.05 182.54, 463.71 187.2 C464.37 191.85, 464.87 196.53, 465.21 201.22 C465.54 205.9, 465.7 210.6, 465.7 215.3" stroke="#1971c2" stroke-width="1.5" fill="none" stroke-dasharray="8 9"></path></g><g transform="translate(546.9616264801025 208.9592360498879) rotate(0 80.9000015258789 16.099999999999994)"><text x="80.9000015258789" y="0" font-family="Helvetica, Segoe UI Emoji" font-size="28px" fill="#1971c2" text-anchor="middle" style="white-space: pre;" direction="ltr" dominant-baseline="text-before-edge">Partner Keys</text></g><g stroke-linecap="round" transform="translate(10.00000000000091 207.2271486824603) rotate(0 209.10208171831573 210.13468459099883)"><path d="M418.2 210.13 C418.2 214.72, 418.05 219.31, 417.76 223.88 C417.46 228.45, 417.01 233.02, 416.42 237.56 C415.82 242.1, 415.08 246.64, 414.19 251.13 C413.3 255.62, 412.26 260.1, 411.08 264.52 C409.9 268.95, 408.57 273.34, 407.11 277.68 C405.64 282.02, 404.03 286.32, 402.29 290.55 C400.54 294.78, 398.66 298.97, 396.64 303.07 C394.62 307.18, 392.47 311.23, 390.19 315.2 C387.91 319.17, 385.5 323.07, 382.96 326.88 C380.43 330.69, 377.77 334.42, 374.99 338.06 C372.22 341.69, 369.32 345.24, 366.31 348.69 C363.31 352.13, 360.18 355.48, 356.96 358.72 C353.74 361.96, 350.4 365.1, 346.97 368.12 C343.55 371.14, 340.01 374.06, 336.4 376.85 C332.78 379.63, 329.06 382.31, 325.27 384.86 C321.48 387.4, 317.6 389.83, 313.65 392.12 C309.71 394.41, 305.67 396.57, 301.59 398.6 C297.5 400.62, 293.33 402.52, 289.12 404.27 C284.91 406.03, 280.63 407.64, 276.32 409.12 C272 410.59, 267.62 411.92, 263.22 413.11 C258.82 414.29, 254.37 415.34, 249.9 416.23 C245.42 417.13, 240.92 417.87, 236.4 418.47 C231.88 419.07, 227.33 419.52, 222.78 419.82 C218.23 420.12, 213.66 420.27, 209.1 420.27 C204.54 420.27, 199.98 420.12, 195.43 419.82 C190.88 419.52, 186.33 419.07, 181.81 418.47 C177.29 417.87, 172.78 417.13, 168.31 416.23 C163.84 415.34, 159.39 414.29, 154.98 413.11 C150.58 411.92, 146.21 410.59, 141.89 409.12 C137.57 407.64, 133.29 406.03, 129.08 404.27 C124.87 402.52, 120.71 400.62, 116.62 398.6 C112.53 396.57, 108.5 394.41, 104.55 392.12 C100.6 389.83, 96.72 387.4, 92.93 384.86 C89.14 382.31, 85.43 379.63, 81.81 376.85 C78.19 374.06, 74.66 371.14, 71.23 368.12 C67.8 365.1, 64.47 361.96, 61.24 358.72 C58.02 355.48, 54.9 352.13, 51.89 348.69 C48.89 345.24, 45.99 341.69, 43.21 338.06 C40.44 334.42, 37.77 330.69, 35.24 326.88 C32.71 323.07, 30.29 319.17, 28.01 315.2 C25.74 311.23, 23.58 307.18, 21.56 303.07 C19.55 298.97, 17.66 294.78, 15.92 290.55 C14.17 286.32, 12.56 282.02, 11.1 277.68 C9.63 273.34, 8.3 268.95, 7.12 264.52 C5.95 260.1, 4.91 255.62, 4.02 251.13 C3.13 246.64, 2.38 242.1, 1.79 237.56 C1.19 233.02, 0.75 228.45, 0.45 223.88 C0.15 219.31, 0 214.72, 0 210.13 C0 205.55, 0.15 200.96, 0.45 196.39 C0.75 191.82, 1.19 187.25, 1.79 182.71 C2.38 178.16, 3.13 173.63, 4.02 169.14 C4.91 164.65, 5.95 160.17, 7.12 155.75 C8.3 151.32, 9.63 146.93, 11.1 142.59 C12.56 138.25, 14.17 133.95, 15.92 129.72 C17.66 125.49, 19.55 121.3, 21.56 117.19 C23.58 113.09, 25.74 109.03, 28.01 105.07 C30.29 101.1, 32.71 97.2, 35.24 93.39 C37.77 89.58, 40.44 85.85, 43.21 82.21 C45.99 78.58, 48.89 75.03, 51.89 71.58 C54.9 68.14, 58.02 64.79, 61.24 61.55 C64.47 58.31, 67.8 55.17, 71.23 52.15 C74.66 49.13, 78.19 46.21, 81.81 43.42 C85.43 40.63, 89.14 37.96, 92.93 35.41 C96.72 32.87, 100.6 30.44, 104.55 28.15 C108.5 25.86, 112.53 23.7, 116.62 21.67 C120.71 19.64, 124.87 17.75, 129.08 16 C133.29 14.24, 137.57 12.62, 141.89 11.15 C146.21 9.68, 150.58 8.35, 154.98 7.16 C159.39 5.97, 163.84 4.93, 168.31 4.04 C172.78 3.14, 177.29 2.4, 181.81 1.8 C186.33 1.2, 190.88 0.75, 195.43 0.45 C199.98 0.15, 204.54 0, 209.1 0 C213.66 0, 218.23 0.15, 222.78 0.45 C227.33 0.75, 231.88 1.2, 236.4 1.8 C240.92 2.4, 245.42 3.14, 249.9 4.04 C254.37 4.93, 258.82 5.97, 263.22 7.16 C267.62 8.35, 272 9.68, 276.32 11.15 C280.63 12.62, 284.91 14.24, 289.12 16 C293.33 17.75, 297.5 19.64, 301.59 21.67 C305.67 23.7, 309.71 25.86, 313.65 28.15 C317.6 30.44, 321.48 32.87, 325.27 35.41 C329.06 37.96, 332.78 40.63, 336.4 43.42 C340.01 46.21, 343.55 49.13, 346.97 52.15 C350.4 55.17, 353.74 58.31, 356.96 61.55 C360.18 64.79, 363.31 68.14, 366.31 71.58 C369.32 75.03, 372.22 78.58, 374.99 82.21 C377.77 85.85, 380.43 89.58, 382.96 93.39 C385.5 97.2, 387.91 101.1, 390.19 105.07 C392.47 109.03, 394.62 113.09, 396.64 117.19 C398.66 121.3, 400.54 125.49, 402.29 129.72 C404.03 133.95, 405.64 138.25, 407.11 142.59 C408.57 146.93, 409.9 151.32, 411.08 155.75 C412.26 160.17, 413.3 164.65, 414.19 169.14 C415.08 173.63, 415.82 178.16, 416.42 182.71 C417.01 187.25, 417.46 191.82, 417.76 196.39 C418.05 200.96, 418.2 205.55, 418.2 210.13" stroke="#2f9e44" stroke-width="1.5" fill="none" stroke-dasharray="8 9"></path></g><g transform="translate(114.99458177507222 401.1741728366675) rotate(0 104.25 16.100000000000023)"><text x="104.25" y="0" font-family="Helvetica, Segoe UI Emoji" font-size="28px" fill="#2f9e44" text-anchor="middle" style="white-space: pre;" direction="ltr" dominant-baseline="text-before-edge">Accounting Keys</text></g><g stroke-linecap="round" transform="translate(524.2362305961587 37.36397612609997) rotate(0 76.92891401488669 17.5)"><path d="M2.33 2.02 C2.33 2.02, 2.33 2.02, 2.33 2.02 M2.33 2.02 C2.33 2.02, 2.33 2.02, 2.33 2.02 M0.76 9.93 C3.58 6.68, 6.41 3.43, 9.28 0.12 M0.76 9.93 C2.87 7.5, 4.98 5.07, 9.28 0.12 M1.15 15.57 C4.28 11.97, 7.41 8.37, 14.27 0.48 M1.15 15.57 C5.8 10.22, 10.45 4.87, 14.27 0.48 M1.54 21.22 C6.34 15.7, 11.14 10.18, 19.91 0.09 M1.54 21.22 C6.49 15.53, 11.43 9.84, 19.91 0.09 M1.28 27.62 C6.49 21.63, 11.69 15.64, 24.9 0.45 M1.28 27.62 C7.75 20.17, 14.22 12.73, 24.9 0.45 M2.99 31.75 C9.26 24.54, 15.52 17.33, 30.54 0.05 M2.99 31.75 C8.97 24.87, 14.95 17.99, 30.54 0.05 M5.35 35.13 C13.54 25.71, 21.73 16.29, 35.53 0.41 M5.35 35.13 C15.17 23.83, 25 12.53, 35.53 0.41 M9.68 36.24 C16.18 28.77, 22.68 21.29, 41.17 0.02 M9.68 36.24 C16.51 28.39, 23.34 20.54, 41.17 0.02 M15.33 35.85 C25.8 23.8, 36.27 11.75, 46.16 0.38 M15.33 35.85 C24.96 24.77, 34.6 13.68, 46.16 0.38 M20.31 36.21 C27.19 28.3, 34.07 20.38, 51.8 -0.02 M20.31 36.21 C28.18 27.16, 36.04 18.12, 51.8 -0.02 M25.96 35.81 C32.67 28.09, 39.38 20.37, 56.79 0.34 M25.96 35.81 C35.03 25.37, 44.11 14.93, 56.79 0.34 M30.94 36.17 C41.26 24.31, 51.57 12.44, 62.43 -0.05 M30.94 36.17 C42.07 23.37, 53.2 10.57, 62.43 -0.05 M36.59 35.78 C47.11 23.68, 57.62 11.58, 67.42 0.31 M36.59 35.78 C48.52 22.05, 60.45 8.33, 67.42 0.31 M41.57 36.14 C49.02 27.57, 56.47 19.01, 72.41 0.67 M41.57 36.14 C48.41 28.28, 55.24 20.42, 72.41 0.67 M47.22 35.75 C59.23 21.93, 71.24 8.11, 78.05 0.27 M47.22 35.75 C58.38 22.9, 69.55 10.06, 78.05 0.27 M52.2 36.11 C61.81 25.05, 71.42 14, 83.04 0.63 M52.2 36.11 C58.51 28.85, 64.81 21.6, 83.04 0.63 M57.85 35.71 C66.68 25.55, 75.51 15.39, 88.68 0.24 M57.85 35.71 C65.5 26.91, 73.15 18.11, 88.68 0.24 M62.83 36.07 C73.11 24.25, 83.38 12.43, 93.67 0.6 M62.83 36.07 C72.34 25.13, 81.85 14.19, 93.67 0.6 M68.48 35.68 C80.77 21.53, 93.07 7.39, 99.31 0.2 M68.48 35.68 C78.63 23.99, 88.79 12.31, 99.31 0.2 M73.46 36.04 C84.11 23.79, 94.75 11.55, 104.3 0.56 M73.46 36.04 C85.67 21.99, 97.88 7.95, 104.3 0.56 M79.11 35.64 C89.51 23.67, 99.91 11.71, 109.94 0.17 M79.11 35.64 C89.8 23.34, 100.49 11.05, 109.94 0.17 M84.09 36 C91.2 27.83, 98.3 19.66, 114.93 0.53 M84.09 36 C96 22.31, 107.9 8.62, 114.93 0.53 M89.08 36.36 C100.32 23.43, 111.56 10.5, 120.57 0.14 M89.08 36.36 C98.43 25.6, 107.79 14.84, 120.57 0.14 M94.72 35.97 C104.44 24.79, 114.16 13.61, 125.56 0.5 M94.72 35.97 C102.55 26.97, 110.37 17.97, 125.56 0.5 M99.71 36.33 C110.91 23.44, 122.11 10.56, 131.2 0.1 M99.71 36.33 C107.07 27.87, 114.42 19.41, 131.2 0.1 M105.35 35.93 C116.75 22.82, 128.15 9.71, 136.19 0.46 M105.35 35.93 C112.45 27.77, 119.55 19.6, 136.19 0.46 M110.34 36.29 C119.02 26.3, 127.71 16.32, 141.83 0.07 M110.34 36.29 C118.71 26.67, 127.08 17.04, 141.83 0.07 M115.98 35.9 C122.26 28.68, 128.54 21.46, 146.16 1.18 M115.98 35.9 C122.12 28.84, 128.25 21.78, 146.16 1.18 M120.97 36.26 C129.92 25.97, 138.86 15.68, 150.49 2.3 M120.97 36.26 C131.58 24.05, 142.19 11.85, 150.49 2.3 M126.61 35.86 C134.35 26.96, 142.09 18.06, 153.51 4.92 M126.61 35.86 C135.13 26.06, 143.65 16.26, 153.51 4.92 M131.6 36.22 C137.73 29.17, 143.86 22.12, 154.56 9.81 M131.6 36.22 C139.33 27.34, 147.05 18.45, 154.56 9.81 M137.24 35.83 C142.54 29.74, 147.84 23.64, 154.3 16.21 M137.24 35.83 C143.57 28.56, 149.89 21.28, 154.3 16.21 M142.23 36.19 C145.24 32.73, 148.24 29.28, 154.7 21.85 M142.23 36.19 C145.66 32.25, 149.09 28.3, 154.7 21.85 M149.19 34.29 C150.35 32.95, 151.51 31.61, 154.44 28.25 M149.19 34.29 C150.35 32.95, 151.51 31.61, 154.44 28.25" stroke="#a5d8ff" stroke-width="0.5" fill="none"></path><path d="M8.75 0 M8.75 0 C55.43 0, 102.11 0, 145.11 0 M145.11 0 C150.94 0, 153.86 2.92, 153.86 8.75 M153.86 8.75 C153.86 12.63, 153.86 16.51, 153.86 26.25 M153.86 26.25 C153.86 32.08, 150.94 35, 145.11 35 M145.11 35 C104.1 35, 63.09 35, 8.75 35 M8.75 35 C2.92 35, 0 32.08, 0 26.25 M0 26.25 C0 19.58, 0 12.92, 0 8.75 M0 8.75 C0 2.92, 2.92 0, 8.75 0" stroke="#1971c2" stroke-width="1.5" fill="none" stroke-dasharray="8 9"></path></g><g transform="translate(556.1151453739849 43.36397612609997) rotate(0 45.04999923706055 11.5)"><text x="45.04999923706055" y="0" font-family="Helvetica, Segoe UI Emoji" font-size="20px" fill="#1971c2" text-anchor="middle" style="white-space: pre;" direction="ltr" dominant-baseline="text-before-edge">ePayment</text></g><g stroke-linecap="round" transform="translate(625.4313121190953 96.27658870464509) rotate(0 76.92891401488669 17.5)"><path d="M2.33 2.02 C2.33 2.02, 2.33 2.02, 2.33 2.02 M2.33 2.02 C2.33 2.02, 2.33 2.02, 2.33 2.02 M0.76 9.93 C3.07 7.27, 5.38 4.61, 9.28 0.12 M0.76 9.93 C3.53 6.74, 6.31 3.55, 9.28 0.12 M1.15 15.57 C3.86 12.46, 6.57 9.35, 14.27 0.48 M1.15 15.57 C3.99 12.3, 6.84 9.03, 14.27 0.48 M1.54 21.22 C7.78 14.04, 14.02 6.86, 19.91 0.09 M1.54 21.22 C7.28 14.62, 13.02 8.01, 19.91 0.09 M1.28 27.62 C6.44 21.68, 11.6 15.75, 24.9 0.45 M1.28 27.62 C7.18 20.83, 13.08 14.05, 24.9 0.45 M2.99 31.75 C8.99 24.85, 14.99 17.95, 30.54 0.05 M2.99 31.75 C11.1 22.42, 19.21 13.09, 30.54 0.05 M5.35 35.13 C15.24 23.76, 25.12 12.38, 35.53 0.41 M5.35 35.13 C16.02 22.86, 26.68 10.6, 35.53 0.41 M9.68 36.24 C20.43 23.89, 31.17 11.53, 41.17 0.02 M9.68 36.24 C21.87 22.23, 34.05 8.21, 41.17 0.02 M15.33 35.85 C22.77 27.28, 30.22 18.72, 46.16 0.38 M15.33 35.85 C22.16 27.99, 28.99 20.13, 46.16 0.38 M20.31 36.21 C32.58 22.1, 44.85 7.98, 51.8 -0.02 M20.31 36.21 C31.72 23.09, 43.12 9.97, 51.8 -0.02 M25.96 35.81 C35.57 24.76, 45.17 13.71, 56.79 0.34 M25.96 35.81 C32.26 28.56, 38.57 21.31, 56.79 0.34 M30.94 36.17 C39.96 25.8, 48.98 15.42, 62.43 -0.05 M30.94 36.17 C38.76 27.19, 46.57 18.2, 62.43 -0.05 M36.59 35.78 C46.86 23.96, 57.14 12.14, 67.42 0.31 M36.59 35.78 C46.1 24.84, 55.61 13.9, 67.42 0.31 M41.57 36.14 C53.87 22, 66.17 7.85, 72.41 0.67 M41.57 36.14 C51.73 24.46, 61.89 12.77, 72.41 0.67 M47.22 35.75 C57.86 23.5, 68.51 11.25, 78.05 0.27 M47.22 35.75 C59.43 21.7, 71.64 7.65, 78.05 0.27 M52.2 36.11 C62.61 24.14, 73.01 12.17, 83.04 0.63 M52.2 36.11 C62.89 23.81, 73.58 11.51, 83.04 0.63 M57.85 35.71 C64.95 27.54, 72.05 19.37, 88.68 0.24 M57.85 35.71 C69.75 22.02, 81.65 8.33, 88.68 0.24 M62.83 36.07 C73.84 23.41, 84.84 10.75, 93.67 0.6 M62.83 36.07 C71.99 25.54, 81.15 15, 93.67 0.6 M68.48 35.68 C78.19 24.5, 87.91 13.32, 99.31 0.2 M68.48 35.68 C76.3 26.68, 84.12 17.68, 99.31 0.2 M73.46 36.04 C84.43 23.42, 95.4 10.81, 104.3 0.56 M73.46 36.04 C80.67 27.75, 87.87 19.47, 104.3 0.56 M79.11 35.64 C90.5 22.53, 101.9 9.42, 109.94 0.17 M79.11 35.64 C86.21 27.48, 93.3 19.31, 109.94 0.17 M84.09 36 C92.6 26.22, 101.1 16.44, 114.93 0.53 M84.09 36 C92.29 26.57, 100.48 17.15, 114.93 0.53 M89.08 36.36 C95.63 28.83, 102.18 21.3, 120.57 0.14 M89.08 36.36 C95.48 29, 101.88 21.63, 120.57 0.14 M94.72 35.97 C104.07 25.22, 113.41 14.47, 125.56 0.5 M94.72 35.97 C105.81 23.22, 116.89 10.47, 125.56 0.5 M99.71 36.33 C108.77 25.9, 117.83 15.48, 131.2 0.1 M99.71 36.33 C109.69 24.85, 119.66 13.38, 131.2 0.1 M105.35 35.93 C113.59 26.46, 121.82 16.99, 136.19 0.46 M105.35 35.93 C115.73 24, 126.1 12.07, 136.19 0.46 M110.34 36.29 C120.12 25.04, 129.9 13.8, 141.83 0.07 M110.34 36.29 C122.01 22.87, 133.69 9.44, 141.83 0.07 M115.98 35.9 C123.26 27.53, 130.53 19.16, 146.16 1.18 M115.98 35.9 C124.29 26.35, 132.59 16.8, 146.16 1.18 M120.97 36.26 C127.51 28.74, 134.05 21.22, 150.49 2.3 M120.97 36.26 C127.51 28.74, 134.04 21.22, 150.49 2.3 M126.61 35.86 C135.82 25.27, 145.03 14.68, 153.51 4.92 M126.61 35.86 C134.95 26.28, 143.28 16.69, 153.51 4.92 M131.6 36.22 C136.41 30.69, 141.22 25.16, 154.56 9.81 M131.6 36.22 C140.36 26.15, 149.12 16.07, 154.56 9.81 M137.24 35.83 C142.9 29.32, 148.56 22.81, 154.3 16.21 M137.24 35.83 C141.19 31.29, 145.14 26.75, 154.3 16.21 M142.23 36.19 C146.06 31.78, 149.9 27.37, 154.7 21.85 M142.23 36.19 C144.97 33.04, 147.71 29.88, 154.7 21.85 M149.19 34.29 C150.31 33, 151.43 31.71, 154.44 28.25 M149.19 34.29 C150.69 32.55, 152.2 30.82, 154.44 28.25" stroke="#a5d8ff" stroke-width="0.5" fill="none"></path><path d="M8.75 0 M8.75 0 C62.16 0, 115.56 0, 145.11 0 M145.11 0 C150.94 0, 153.86 2.92, 153.86 8.75 M153.86 8.75 C153.86 13.28, 153.86 17.8, 153.86 26.25 M153.86 26.25 C153.86 32.08, 150.94 35, 145.11 35 M145.11 35 C98.18 35, 51.25 35, 8.75 35 M8.75 35 C2.92 35, 0 32.08, 0 26.25 M0 26.25 C0 21.96, 0 17.68, 0 8.75 M0 8.75 C0 2.92, 2.92 0, 8.75 0" stroke="#1971c2" stroke-width="1.5" fill="none" stroke-dasharray="8 9"></path></g><g transform="translate(662.326893309275 102.27658870464509) rotate(0 40.03333282470703 11.5)"><text x="40.03333282470703" y="0" font-family="Helvetica, Segoe UI Emoji" font-size="20px" fill="#1971c2" text-anchor="middle" style="white-space: pre;" direction="ltr" dominant-baseline="text-before-edge">eCom v2</text></g><g stroke-linecap="round" transform="translate(670.8658385171466 276.98209142417716) rotate(0 76.92891401488669 17.49999999999997)"><path d="M2.33 2.02 C2.33 2.02, 2.33 2.02, 2.33 2.02 M2.33 2.02 C2.33 2.02, 2.33 2.02, 2.33 2.02 M0.76 9.93 C3.53 6.74, 6.31 3.55, 9.28 0.12 M0.76 9.93 C2.52 7.91, 4.28 5.88, 9.28 0.12 M1.15 15.57 C3.99 12.3, 6.84 9.03, 14.27 0.48 M1.15 15.57 C5.61 10.45, 10.06 5.32, 14.27 0.48 M1.54 21.22 C7.28 14.62, 13.02 8.01, 19.91 0.09 M1.54 21.22 C5.56 16.6, 9.57 11.99, 19.91 0.09 M1.28 27.62 C7.18 20.83, 13.08 14.05, 24.9 0.45 M1.28 27.62 C6.42 21.7, 11.57 15.79, 24.9 0.45 M2.99 31.75 C11.1 22.42, 19.21 13.09, 30.54 0.05 M2.99 31.75 C12.02 21.37, 21.04 10.98, 30.54 0.05 M5.35 35.13 C16.02 22.86, 26.68 10.6, 35.53 0.41 M5.35 35.13 C15.65 23.29, 25.94 11.44, 35.53 0.41 M9.68 36.24 C21.87 22.23, 34.05 8.21, 41.17 0.02 M9.68 36.24 C17.29 27.5, 24.89 18.75, 41.17 0.02 M15.33 35.85 C22.16 27.99, 28.99 20.13, 46.16 0.38 M15.33 35.85 C27.34 22.03, 39.35 8.21, 46.16 0.38 M20.31 36.21 C31.72 23.09, 43.12 9.97, 51.8 -0.02 M20.31 36.21 C30.13 24.92, 39.94 13.63, 51.8 -0.02 M25.96 35.81 C32.26 28.56, 38.57 21.31, 56.79 0.34 M25.96 35.81 C34.79 25.65, 43.62 15.49, 56.79 0.34 M30.94 36.17 C38.76 27.19, 46.57 18.2, 62.43 -0.05 M30.94 36.17 C41.44 24.1, 51.93 12.03, 62.43 -0.05 M36.59 35.78 C46.1 24.84, 55.61 13.9, 67.42 0.31 M36.59 35.78 C48.88 21.63, 61.18 7.49, 67.42 0.31 M41.57 36.14 C51.73 24.46, 61.89 12.77, 72.41 0.67 M41.57 36.14 C52.22 23.89, 62.86 11.65, 72.41 0.67 M47.22 35.75 C59.43 21.7, 71.64 7.65, 78.05 0.27 M47.22 35.75 C57.62 23.78, 68.02 11.81, 78.05 0.27 M52.2 36.11 C62.89 23.81, 73.58 11.51, 83.04 0.63 M52.2 36.11 C59.31 27.93, 66.41 19.76, 83.04 0.63 M57.85 35.71 C69.75 22.02, 81.65 8.33, 88.68 0.24 M57.85 35.71 C68.85 23.05, 79.86 10.39, 88.68 0.24 M62.83 36.07 C71.99 25.54, 81.15 15, 93.67 0.6 M62.83 36.07 C72.55 24.89, 82.27 13.72, 93.67 0.6 M68.48 35.68 C76.3 26.68, 84.12 17.68, 99.31 0.2 M68.48 35.68 C79.44 23.06, 90.41 10.45, 99.31 0.2 M73.46 36.04 C80.67 27.75, 87.87 19.47, 104.3 0.56 M73.46 36.04 C84.86 22.93, 96.26 9.81, 104.3 0.56 M79.11 35.64 C86.21 27.48, 93.3 19.31, 109.94 0.17 M79.11 35.64 C87.61 25.86, 96.11 16.08, 109.94 0.17 M84.09 36 C92.29 26.57, 100.48 17.15, 114.93 0.53 M84.09 36 C90.51 28.63, 96.92 21.25, 114.93 0.53 M89.08 36.36 C95.48 29, 101.88 21.63, 120.57 0.14 M89.08 36.36 C98.62 25.39, 108.16 14.41, 120.57 0.14 M94.72 35.97 C105.81 23.22, 116.89 10.47, 125.56 0.5 M94.72 35.97 C103.6 25.76, 112.47 15.55, 125.56 0.5 M99.71 36.33 C109.69 24.85, 119.66 13.38, 131.2 0.1 M99.71 36.33 C108.12 26.66, 116.53 16.99, 131.2 0.1 M105.35 35.93 C115.73 24, 126.1 12.07, 136.19 0.46 M105.35 35.93 C114.93 24.92, 124.5 13.9, 136.19 0.46 M110.34 36.29 C122.01 22.87, 133.69 9.44, 141.83 0.07 M110.34 36.29 C117.93 27.56, 125.52 18.83, 141.83 0.07 M115.98 35.9 C124.29 26.35, 132.59 16.8, 146.16 1.18 M115.98 35.9 C122.67 28.21, 129.35 20.52, 146.16 1.18 M120.97 36.26 C127.51 28.74, 134.04 21.22, 150.49 2.3 M120.97 36.26 C131.08 24.63, 141.18 13.01, 150.49 2.3 M126.61 35.86 C134.95 26.28, 143.28 16.69, 153.51 4.92 M126.61 35.86 C132.25 29.38, 137.89 22.9, 153.51 4.92 M131.6 36.22 C140.36 26.15, 149.12 16.07, 154.56 9.81 M131.6 36.22 C139.22 27.46, 146.83 18.7, 154.56 9.81 M137.24 35.83 C141.19 31.29, 145.14 26.75, 154.3 16.21 M137.24 35.83 C142.49 29.8, 147.73 23.76, 154.3 16.21 M142.23 36.19 C144.97 33.04, 147.71 29.88, 154.7 21.85 M142.23 36.19 C144.89 33.13, 147.56 30.07, 154.7 21.85 M149.19 34.29 C150.69 32.55, 152.2 30.82, 154.44 28.25 M149.19 34.29 C151.24 31.92, 153.3 29.56, 154.44 28.25" stroke="#a5d8ff" stroke-width="0.5" fill="none"></path><path d="M8.75 0 M8.75 0 C58.07 0, 107.39 0, 145.11 0 M145.11 0 C150.94 0, 153.86 2.92, 153.86 8.75 M153.86 8.75 C153.86 15.3, 153.86 21.85, 153.86 26.25 M153.86 26.25 C153.86 32.08, 150.94 35, 145.11 35 M145.11 35 C110.53 35, 75.95 35, 8.75 35 M8.75 35 C2.92 35, 0 32.08, 0 26.25 M0 26.25 C0 22.12, 0 17.98, 0 8.75 M0 8.75 C0 2.92, 2.92 0, 8.75 0" stroke="#1971c2" stroke-width="1.5" fill="none" stroke-dasharray="8 9"></path></g><g transform="translate(704.4280876455587 282.98209142417716) rotate(0 43.36666488647461 11.5)"><text x="43.36666488647461" y="0" font-family="Helvetica, Segoe UI Emoji" font-size="20px" fill="#1971c2" text-anchor="middle" style="white-space: pre;" direction="ltr" dominant-baseline="text-before-edge">Recurring</text></g><g stroke-linecap="round" transform="translate(415.81292896443847 143.776320848065) rotate(0 103.77658870464529 19.157669836828063)"><path d="M2.55 2.22 C2.55 2.22, 2.55 2.22, 2.55 2.22 M2.55 2.22 C2.55 2.22, 2.55 2.22, 2.55 2.22 M0.98 10.12 C2.74 8.1, 4.5 6.07, 9.5 0.31 M0.98 10.12 C2.83 8, 4.67 5.87, 9.5 0.31 M0.71 16.52 C5.62 10.88, 10.52 5.24, 15.15 -0.08 M0.71 16.52 C5.22 11.33, 9.73 6.15, 15.15 -0.08 M1.11 22.16 C5.27 17.38, 9.42 12.6, 20.13 0.28 M1.11 22.16 C5.86 16.7, 10.61 11.23, 20.13 0.28 M1.5 27.81 C6.79 21.73, 12.07 15.65, 25.78 -0.12 M1.5 27.81 C8.65 19.59, 15.8 11.37, 25.78 -0.12 M1.9 33.45 C11.35 22.57, 20.81 11.7, 30.77 0.24 M1.9 33.45 C12.1 21.72, 22.3 9.98, 30.77 0.24 M3.61 37.58 C14.79 24.71, 25.98 11.84, 36.41 -0.15 M3.61 37.58 C16.3 22.98, 28.99 8.38, 36.41 -0.15 M7.28 39.45 C15.52 29.98, 23.76 20.5, 41.4 0.21 M7.28 39.45 C14.84 30.76, 22.4 22.06, 41.4 0.21 M11.61 40.57 C25.41 24.69, 39.22 8.81, 47.04 -0.19 M11.61 40.57 C24.44 25.81, 37.27 11.06, 47.04 -0.19 M17.25 40.17 C28.09 27.71, 38.92 15.25, 52.03 0.17 M17.25 40.17 C24.36 32, 31.47 23.82, 52.03 0.17 M22.24 40.53 C32.39 28.86, 42.54 17.19, 57.67 -0.22 M22.24 40.53 C31.03 30.42, 39.82 20.31, 57.67 -0.22 M27.88 40.14 C39.47 26.81, 51.06 13.48, 62.66 0.14 M27.88 40.14 C38.61 27.8, 49.33 15.47, 62.66 0.14 M32.87 40.5 C47 24.25, 61.13 8, 68.3 -0.25 M32.87 40.5 C44.54 27.08, 56.21 13.65, 68.3 -0.25 M38.51 40.11 C50.52 26.3, 62.52 12.49, 73.29 0.11 M38.51 40.11 C52.28 24.27, 66.05 8.43, 73.29 0.11 M43.5 40.47 C55.23 26.97, 66.96 13.47, 78.27 0.47 M43.5 40.47 C55.56 26.6, 67.61 12.73, 78.27 0.47 M49.14 40.07 C57.15 30.86, 65.16 21.64, 83.92 0.07 M49.14 40.07 C62.57 24.63, 75.99 9.19, 83.92 0.07 M54.13 40.43 C66.54 26.15, 78.95 11.88, 88.9 0.43 M54.13 40.43 C64.46 28.55, 74.79 16.67, 88.9 0.43 M59.77 40.04 C70.73 27.43, 81.69 14.83, 94.55 0.04 M59.77 40.04 C68.59 29.89, 77.41 19.74, 94.55 0.04 M64.76 40.4 C77.13 26.17, 89.49 11.94, 99.53 0.4 M64.76 40.4 C72.88 31.06, 81 21.71, 99.53 0.4 M70.4 40 C83.26 25.22, 96.11 10.43, 105.18 0 M70.4 40 C78.41 30.79, 86.41 21.59, 105.18 0 M75.39 40.36 C84.98 29.33, 94.57 18.3, 110.16 0.36 M75.39 40.36 C84.63 29.73, 93.87 19.1, 110.16 0.36 M81.03 39.97 C88.27 31.65, 95.5 23.33, 115.81 -0.03 M81.03 39.97 C88.1 31.84, 95.17 23.7, 115.81 -0.03 M86.02 40.33 C96.56 28.21, 107.09 16.09, 120.79 0.33 M86.02 40.33 C98.52 25.95, 111.01 11.58, 120.79 0.33 M91.66 39.93 C101.67 28.42, 111.68 16.91, 126.44 -0.07 M91.66 39.93 C102.68 27.26, 113.69 14.59, 126.44 -0.07 M96.65 40.29 C105.93 29.61, 115.22 18.94, 131.42 0.29 M96.65 40.29 C108.35 26.84, 120.05 13.38, 131.42 0.29 M101.64 40.65 C112.64 28, 123.64 15.34, 137.07 -0.1 M101.64 40.65 C114.77 25.55, 127.9 10.44, 137.07 -0.1 M107.28 40.26 C115.66 30.62, 124.05 20.97, 142.05 0.26 M107.28 40.26 C116.85 29.26, 126.41 18.25, 142.05 0.26 M112.27 40.62 C120.11 31.59, 127.96 22.57, 147.7 -0.14 M112.27 40.62 C120.11 31.6, 127.95 22.57, 147.7 -0.14 M117.91 40.22 C129.81 26.53, 141.72 12.84, 152.68 0.22 M117.91 40.22 C128.68 27.83, 139.46 15.44, 152.68 0.22 M122.9 40.58 C130.32 32.05, 137.74 23.51, 158.33 -0.17 M122.9 40.58 C136.42 25.04, 149.93 9.49, 158.33 -0.17 M128.54 40.19 C140.07 26.92, 151.6 13.66, 163.31 0.19 M128.54 40.19 C136.59 30.94, 144.63 21.68, 163.31 0.19 M133.53 40.55 C144.42 28.02, 155.31 15.49, 168.96 -0.21 M133.53 40.55 C141.32 31.59, 149.11 22.62, 168.96 -0.21 M139.17 40.15 C146.6 31.61, 154.02 23.07, 173.94 0.16 M139.17 40.15 C149.14 28.69, 159.1 17.23, 173.94 0.16 M144.16 40.51 C158.03 24.55, 171.91 8.59, 179.59 -0.24 M144.16 40.51 C156.97 25.77, 169.79 11.03, 179.59 -0.24 M149.8 40.12 C158.02 30.66, 166.24 21.21, 184.57 0.12 M149.8 40.12 C162.98 24.96, 176.15 9.81, 184.57 0.12 M154.79 40.48 C168.34 24.89, 181.89 9.31, 190.22 -0.27 M154.79 40.48 C165 28.74, 175.21 16.99, 190.22 -0.27 M160.43 40.09 C170.6 28.39, 180.76 16.7, 195.2 0.09 M160.43 40.09 C169.74 29.38, 179.05 18.67, 195.2 0.09 M165.42 40.45 C173.73 30.88, 182.05 21.32, 199.53 1.2 M165.42 40.45 C176.91 27.22, 188.41 14, 199.53 1.2 M171.06 40.05 C181.46 28.09, 191.86 16.12, 203.87 2.32 M171.06 40.05 C183.16 26.14, 195.25 12.23, 203.87 2.32 M176.05 40.41 C188.12 26.53, 200.18 12.65, 207.54 4.19 M176.05 40.41 C185.55 29.48, 195.06 18.54, 207.54 4.19 M181.69 40.02 C189.31 31.25, 196.93 22.49, 207.93 9.83 M181.69 40.02 C190.98 29.34, 200.26 18.65, 207.93 9.83 M186.68 40.38 C191.98 34.28, 197.27 28.19, 207.67 16.23 M186.68 40.38 C191.57 34.75, 196.46 29.12, 207.67 16.23 M192.32 39.98 C195.87 35.9, 199.43 31.81, 207.41 22.62 M192.32 39.98 C197.62 33.88, 202.93 27.78, 207.41 22.62 M198.62 38.83 C201.58 35.44, 204.53 32.04, 207.15 29.02 M198.62 38.83 C200.64 36.51, 202.66 34.19, 207.15 29.02" stroke="#a5d8ff" stroke-width="0.5" fill="none"></path><path d="M9.58 0 M9.58 0 C50.91 0, 92.24 0, 197.97 0 M197.97 0 C204.36 0, 207.55 3.19, 207.55 9.58 M207.55 9.58 C207.55 14.33, 207.55 19.08, 207.55 28.74 M207.55 28.74 C207.55 35.12, 204.36 38.32, 197.97 38.32 M197.97 38.32 C154.02 38.32, 110.06 38.32, 9.58 38.32 M9.58 38.32 C3.19 38.32, 0 35.12, 0 28.74 M0 28.74 C0 23.58, 0 18.43, 0 9.58 M0 9.58 C0 3.19, 3.19 0, 9.58 0" stroke="#1971c2" stroke-width="1.5" fill="none" stroke-dasharray="8 9"></path></g><g transform="translate(432.80618484437673 151.43399068489308) rotate(0 86.78333282470703 11.5)"><text x="86.78333282470703" y="0" font-family="Helvetica, Segoe UI Emoji" font-size="20px" fill="#1971c2" text-anchor="middle" style="white-space: pre;" direction="ltr" dominant-baseline="text-before-edge">Order Management</text></g><g stroke-linecap="round" transform="translate(163.8578280297752 484.5352688334682) rotate(0 76.92891401488669 17.5)"><path d="M2.33 2.02 C2.33 2.02, 2.33 2.02, 2.33 2.02 M2.33 2.02 C2.33 2.02, 2.33 2.02, 2.33 2.02 M0.76 9.93 C3.85 6.37, 6.95 2.81, 9.28 0.12 M0.76 9.93 C3.72 6.52, 6.68 3.12, 9.28 0.12 M1.15 15.57 C5.67 10.38, 10.18 5.19, 14.27 0.48 M1.15 15.57 C4.48 11.75, 7.8 7.92, 14.27 0.48 M1.54 21.22 C8 13.8, 14.45 6.37, 19.91 0.09 M1.54 21.22 C6.51 15.51, 11.47 9.8, 19.91 0.09 M1.28 27.62 C7.74 20.19, 14.2 12.76, 24.9 0.45 M1.28 27.62 C8.93 18.82, 16.57 10.03, 24.9 0.45 M2.99 31.75 C10.29 23.36, 17.58 14.96, 30.54 0.05 M2.99 31.75 C12.14 21.22, 21.29 10.69, 30.54 0.05 M5.35 35.13 C15.39 23.58, 25.43 12.04, 35.53 0.41 M5.35 35.13 C11.89 27.6, 18.44 20.08, 35.53 0.41 M9.68 36.24 C19.88 24.51, 30.09 12.77, 41.17 0.02 M9.68 36.24 C19.6 24.84, 29.51 13.43, 41.17 0.02 M15.33 35.85 C25.01 24.71, 34.68 13.58, 46.16 0.38 M15.33 35.85 C27.42 21.94, 39.52 8.02, 46.16 0.38 M20.31 36.21 C32.68 21.98, 45.04 7.76, 51.8 -0.02 M20.31 36.21 C28.37 26.94, 36.42 17.68, 51.8 -0.02 M25.96 35.81 C33.76 26.83, 41.57 17.85, 56.79 0.34 M25.96 35.81 C37.24 22.84, 48.52 9.86, 56.79 0.34 M30.94 36.17 C42.87 22.46, 54.79 8.74, 62.43 -0.05 M30.94 36.17 C38.78 27.16, 46.61 18.15, 62.43 -0.05 M36.59 35.78 C43.68 27.62, 50.77 19.47, 67.42 0.31 M36.59 35.78 C46.13 24.8, 55.68 13.82, 67.42 0.31 M41.57 36.14 C48.77 27.86, 55.96 19.59, 72.41 0.67 M41.57 36.14 C49.1 27.48, 56.62 18.83, 72.41 0.67 M47.22 35.75 C58.55 22.71, 69.89 9.66, 78.05 0.27 M47.22 35.75 C54.98 26.82, 62.73 17.89, 78.05 0.27 M52.2 36.11 C63.06 23.62, 73.91 11.13, 83.04 0.63 M52.2 36.11 C59.84 27.32, 67.48 18.53, 83.04 0.63 M57.85 35.71 C65.04 27.44, 72.23 19.16, 88.68 0.24 M57.85 35.71 C66.37 25.9, 74.9 16.1, 88.68 0.24 M62.83 36.07 C74.35 22.82, 85.87 9.57, 93.67 0.6 M62.83 36.07 C72.78 24.63, 82.73 13.18, 93.67 0.6 M68.48 35.68 C75.81 27.24, 83.14 18.81, 99.31 0.2 M68.48 35.68 C78.49 24.15, 88.51 12.63, 99.31 0.2 M73.46 36.04 C85.21 22.53, 96.95 9.02, 104.3 0.56 M73.46 36.04 C85.41 22.29, 97.36 8.55, 104.3 0.56 M79.11 35.64 C86.37 27.29, 93.63 18.93, 109.94 0.17 M79.11 35.64 C91.25 21.68, 103.39 7.71, 109.94 0.17 M84.09 36 C93.35 25.36, 102.6 14.71, 114.93 0.53 M84.09 36 C90.8 28.29, 97.5 20.58, 114.93 0.53 M89.08 36.36 C99.32 24.58, 109.56 12.81, 120.57 0.14 M89.08 36.36 C99.67 24.18, 110.26 12, 120.57 0.14 M94.72 35.97 C104.03 25.27, 113.33 14.57, 125.56 0.5 M94.72 35.97 C102.24 27.32, 109.76 18.67, 125.56 0.5 M99.71 36.33 C107.54 27.32, 115.36 18.32, 131.2 0.1 M99.71 36.33 C107.96 26.83, 116.22 17.34, 131.2 0.1 M105.35 35.93 C117.68 21.76, 130 7.59, 136.19 0.46 M105.35 35.93 C116.28 23.37, 127.2 10.81, 136.19 0.46 M110.34 36.29 C122.67 22.11, 135 7.92, 141.83 0.07 M110.34 36.29 C120.95 24.09, 131.55 11.89, 141.83 0.07 M115.98 35.9 C123.57 27.17, 131.16 18.44, 146.16 1.18 M115.98 35.9 C124.81 25.75, 133.64 15.59, 146.16 1.18 M120.97 36.26 C132.3 23.22, 143.64 10.18, 150.49 2.3 M120.97 36.26 C132.26 23.27, 143.55 10.29, 150.49 2.3 M126.61 35.86 C136.27 24.76, 145.92 13.66, 153.51 4.92 M126.61 35.86 C133.57 27.86, 140.53 19.86, 153.51 4.92 M131.6 36.22 C138.46 28.33, 145.32 20.44, 154.56 9.81 M131.6 36.22 C137.96 28.91, 144.32 21.59, 154.56 9.81 M137.24 35.83 C141.8 30.59, 146.35 25.36, 154.3 16.21 M137.24 35.83 C142.52 29.76, 147.79 23.7, 154.3 16.21 M142.23 36.19 C145.39 32.56, 148.55 28.92, 154.7 21.85 M142.23 36.19 C146.66 31.09, 151.09 26, 154.7 21.85 M149.19 34.29 C151.1 32.09, 153.01 29.88, 154.44 28.25 M149.19 34.29 C151.06 32.13, 152.93 29.98, 154.44 28.25" stroke="#b2f2bb" stroke-width="0.5" fill="none"></path><path d="M8.75 0 M8.75 0 C37.18 0, 65.61 0, 145.11 0 M145.11 0 C150.94 0, 153.86 2.92, 153.86 8.75 M153.86 8.75 C153.86 14.6, 153.86 20.45, 153.86 26.25 M153.86 26.25 C153.86 32.08, 150.94 35, 145.11 35 M145.11 35 C105.43 35, 65.74 35, 8.75 35 M8.75 35 C2.92 35, 0 32.08, 0 26.25 M0 26.25 C0 20.31, 0 14.38, 0 8.75 M0 8.75 C0 2.92, 2.92 0, 8.75 0" stroke="#2f9e44" stroke-width="1.5" fill="none" stroke-dasharray="8 9"></path></g><g transform="translate(191.85340769407594 490.5352688334682) rotate(0 48.93333435058594 11.5)"><text x="48.93333435058594" y="0" font-family="Helvetica, Segoe UI Emoji" font-size="20px" fill="#2f9e44" text-anchor="middle" style="white-space: pre;" direction="ltr" dominant-baseline="text-before-edge">Report API</text></g><g stroke-linecap="round" transform="translate(538.1763693773801 381.2207327295524) rotate(0 91.38535423244912 17.5)"><path d="M2.33 2.02 C2.33 2.02, 2.33 2.02, 2.33 2.02 M2.33 2.02 C2.33 2.02, 2.33 2.02, 2.33 2.02 M0.76 9.93 C2.57 7.85, 4.38 5.76, 9.28 0.12 M0.76 9.93 C3.15 7.18, 5.54 4.43, 9.28 0.12 M1.15 15.57 C4.64 11.55, 8.14 7.53, 14.27 0.48 M1.15 15.57 C6.26 9.7, 11.37 3.82, 14.27 0.48 M1.54 21.22 C5.72 16.42, 9.89 11.61, 19.91 0.09 M1.54 21.22 C6.03 16.06, 10.52 10.89, 19.91 0.09 M1.28 27.62 C8.11 19.77, 14.93 11.92, 24.9 0.45 M1.28 27.62 C10.54 16.97, 19.79 6.32, 24.9 0.45 M2.99 31.75 C10.16 23.5, 17.33 15.25, 30.54 0.05 M2.99 31.75 C9.06 24.76, 15.13 17.78, 30.54 0.05 M5.35 35.13 C16.01 22.87, 26.66 10.62, 35.53 0.41 M5.35 35.13 C16.56 22.24, 27.77 9.35, 35.53 0.41 M9.68 36.24 C21.31 22.87, 32.93 9.5, 41.17 0.02 M9.68 36.24 C20.78 23.48, 31.88 10.71, 41.17 0.02 M15.33 35.85 C24.21 25.62, 33.1 15.4, 46.16 0.38 M15.33 35.85 C26.11 23.44, 36.9 11.03, 46.16 0.38 M20.31 36.21 C28.35 26.96, 36.39 17.71, 51.8 -0.02 M20.31 36.21 C27.89 27.49, 35.46 18.78, 51.8 -0.02 M25.96 35.81 C37.3 22.76, 48.65 9.71, 56.79 0.34 M25.96 35.81 C32.29 28.53, 38.63 21.24, 56.79 0.34 M30.94 36.17 C39.26 26.61, 47.57 17.04, 62.43 -0.05 M30.94 36.17 C41.69 23.82, 52.43 11.46, 62.43 -0.05 M36.59 35.78 C46.12 24.81, 55.66 13.84, 67.42 0.31 M36.59 35.78 C45 26.1, 53.41 16.42, 67.42 0.31 M41.57 36.14 C53.42 22.51, 65.27 8.88, 72.41 0.67 M41.57 36.14 C52.88 23.13, 64.19 10.12, 72.41 0.67 M47.22 35.75 C55.63 26.07, 64.04 16.39, 78.05 0.27 M47.22 35.75 C57.78 23.59, 68.35 11.44, 78.05 0.27 M52.2 36.11 C59.87 27.28, 67.55 18.46, 83.04 0.63 M52.2 36.11 C61.03 25.95, 69.86 15.8, 83.04 0.63 M57.85 35.71 C65.97 26.36, 74.1 17.02, 88.68 0.24 M57.85 35.71 C65.92 26.42, 74 17.13, 88.68 0.24 M62.83 36.07 C73.13 24.23, 83.43 12.38, 93.67 0.6 M62.83 36.07 C72.85 24.55, 82.86 13.03, 93.67 0.6 M68.48 35.68 C78.64 23.99, 88.8 12.3, 99.31 0.2 M68.48 35.68 C78.77 23.84, 89.06 12, 99.31 0.2 M73.46 36.04 C84.56 23.27, 95.66 10.5, 104.3 0.56 M73.46 36.04 C84.68 23.14, 95.89 10.24, 104.3 0.56 M79.11 35.64 C90.3 22.77, 101.49 9.9, 109.94 0.17 M79.11 35.64 C88.9 24.37, 98.7 13.1, 109.94 0.17 M84.09 36 C93.06 25.68, 102.04 15.36, 114.93 0.53 M84.09 36 C94.59 23.93, 105.08 11.86, 114.93 0.53 M89.08 36.36 C98.51 25.51, 107.95 14.66, 120.57 0.14 M89.08 36.36 C96.31 28.05, 103.53 19.74, 120.57 0.14 M94.72 35.97 C105.04 24.1, 115.35 12.24, 125.56 0.5 M94.72 35.97 C102.4 27.14, 110.07 18.31, 125.56 0.5 M99.71 36.33 C109.76 24.77, 119.81 13.21, 131.2 0.1 M99.71 36.33 C110.45 23.97, 121.19 11.62, 131.2 0.1 M105.35 35.93 C115.9 23.8, 126.45 11.67, 136.19 0.46 M105.35 35.93 C115.82 23.9, 126.28 11.86, 136.19 0.46 M110.34 36.29 C118.05 27.43, 125.75 18.56, 141.83 0.07 M110.34 36.29 C122.33 22.51, 134.31 8.72, 141.83 0.07 M115.98 35.9 C122.42 28.49, 128.86 21.08, 146.82 0.43 M115.98 35.9 C125.79 24.62, 135.59 13.35, 146.82 0.43 M120.97 36.26 C131.79 23.81, 142.62 11.36, 152.46 0.03 M120.97 36.26 C131.45 24.21, 141.92 12.16, 152.46 0.03 M126.61 35.86 C135.06 26.15, 143.51 16.43, 157.45 0.39 M126.61 35.86 C137.32 23.54, 148.03 11.22, 157.45 0.39 M131.6 36.22 C141.89 24.39, 152.18 12.55, 163.09 0 M131.6 36.22 C139.09 27.6, 146.59 18.99, 163.09 0 M137.24 35.83 C147.11 24.48, 156.97 13.14, 168.08 0.36 M137.24 35.83 C144.84 27.09, 152.44 18.35, 168.08 0.36 M142.23 36.19 C153.21 23.56, 164.18 10.94, 173.72 -0.04 M142.23 36.19 C154.62 21.94, 167.01 7.69, 173.72 -0.04 M147.87 35.79 C159.14 22.83, 170.41 9.87, 178.05 1.08 M147.87 35.79 C156.64 25.72, 165.4 15.64, 178.05 1.08 M152.86 36.15 C158.85 29.27, 164.84 22.38, 181.73 2.95 M152.86 36.15 C163.03 24.46, 173.2 12.76, 181.73 2.95 M158.5 35.76 C166.29 26.8, 174.08 17.84, 184.09 6.33 M158.5 35.76 C163.89 29.57, 169.27 23.38, 184.09 6.33 M163.49 36.12 C170.97 27.52, 178.45 18.92, 185.14 11.21 M163.49 36.12 C170.51 28.05, 177.52 19.98, 185.14 11.21 M169.14 35.73 C172.71 31.61, 176.28 27.5, 184.88 17.61 M169.14 35.73 C175.34 28.59, 181.54 21.45, 184.88 17.61 M174.78 35.33 C177.38 32.33, 179.99 29.33, 185.28 23.26 M174.78 35.33 C178.71 30.81, 182.64 26.29, 185.28 23.26" stroke="#d0bfff" stroke-width="0.5" fill="none"></path><path d="M8.75 0 M8.75 0 C58.15 0, 107.54 0, 174.02 0 M174.02 0 C179.85 0, 182.77 2.92, 182.77 8.75 M182.77 8.75 C182.77 15.68, 182.77 22.62, 182.77 26.25 M182.77 26.25 C182.77 32.08, 179.85 35, 174.02 35 M174.02 35 C109.08 35, 44.14 35, 8.75 35 M8.75 35 C2.92 35, 0 32.08, 0 26.25 M0 26.25 C0 21.64, 0 17.02, 0 8.75 M0 8.75 C0 2.92, 2.92 0, 8.75 0" stroke="#6741d9" stroke-width="1.5" fill="none" stroke-dasharray="8 9"></path></g><g transform="translate(552.2450579604156 387.2207327295524) rotate(0 77.31666564941406 11.5)"><text x="77.31666564941406" y="0" font-family="Helvetica, Segoe UI Emoji" font-size="20px" fill="#6741d9" text-anchor="middle" style="white-space: pre;" direction="ltr" dominant-baseline="text-before-edge">Management API</text></g><g stroke-linecap="round" transform="translate(685.3222787347113 166.02084239318773) rotate(0 60.407268051957544 16.5)"><path d="M2.2 1.91 C2.2 1.91, 2.2 1.91, 2.2 1.91 M2.2 1.91 C2.2 1.91, 2.2 1.91, 2.2 1.91 M1.28 9.06 C3.02 7.06, 4.76 5.06, 8.5 0.76 M1.28 9.06 C3.48 6.53, 5.69 3.99, 8.5 0.76 M1.02 15.46 C4.17 11.84, 7.32 8.21, 14.14 0.37 M1.02 15.46 C4.36 11.62, 7.7 7.78, 14.14 0.37 M1.41 21.1 C6.17 15.63, 10.93 10.15, 19.13 0.73 M1.41 21.1 C7.32 14.31, 13.22 7.52, 19.13 0.73 M1.81 26.75 C7.5 20.2, 13.19 13.64, 24.77 0.33 M1.81 26.75 C7.1 20.65, 12.4 14.56, 24.77 0.33 M2.86 31.63 C10.28 23.09, 17.71 14.55, 29.76 0.69 M2.86 31.63 C11.3 21.92, 19.75 12.2, 29.76 0.69 M6.53 33.5 C12.79 26.3, 19.05 19.1, 35.4 0.3 M6.53 33.5 C13.51 25.47, 20.49 17.44, 35.4 0.3 M11.52 33.86 C19.79 24.35, 28.06 14.83, 40.39 0.66 M11.52 33.86 C22.37 21.38, 33.22 8.9, 40.39 0.66 M16.51 34.22 C23.64 26.01, 30.78 17.8, 46.03 0.26 M16.51 34.22 C28.15 20.83, 39.79 7.44, 46.03 0.26 M22.15 33.83 C32.74 21.64, 43.34 9.45, 51.02 0.62 M22.15 33.83 C30.91 23.75, 39.67 13.68, 51.02 0.62 M27.14 34.19 C34.7 25.49, 42.26 16.8, 56 0.98 M27.14 34.19 C34.37 25.86, 41.61 17.54, 56 0.98 M32.78 33.79 C39.38 26.2, 45.98 18.61, 61.65 0.59 M32.78 33.79 C42.51 22.59, 52.25 11.39, 61.65 0.59 M37.77 34.15 C45.27 25.53, 52.77 16.9, 66.63 0.95 M37.77 34.15 C44.41 26.52, 51.04 18.88, 66.63 0.95 M43.41 33.76 C49.93 26.26, 56.44 18.77, 72.28 0.55 M43.41 33.76 C54.22 21.33, 65.03 8.89, 72.28 0.55 M48.4 34.12 C55.96 25.42, 63.52 16.72, 77.26 0.91 M48.4 34.12 C54.37 27.24, 60.35 20.36, 77.26 0.91 M54.04 33.73 C64.34 21.88, 74.64 10.03, 82.91 0.52 M54.04 33.73 C64.67 21.5, 75.29 9.28, 82.91 0.52 M59.03 34.09 C68.8 22.84, 78.58 11.59, 87.89 0.88 M59.03 34.09 C68.08 23.68, 77.12 13.27, 87.89 0.88 M64.01 34.45 C71.8 25.48, 79.59 16.52, 93.54 0.48 M64.01 34.45 C73.69 23.31, 83.37 12.18, 93.54 0.48 M69.66 34.05 C75.54 27.28, 81.42 20.51, 98.52 0.84 M69.66 34.05 C79.38 22.87, 89.09 11.69, 98.52 0.84 M74.64 34.41 C81.36 26.68, 88.08 18.95, 103.51 1.2 M74.64 34.41 C83.86 23.81, 93.07 13.21, 103.51 1.2 M80.29 34.02 C86.5 26.87, 92.71 19.73, 109.15 0.81 M80.29 34.02 C89.54 23.37, 98.79 12.73, 109.15 0.81 M85.27 34.38 C96.62 21.32, 107.97 8.27, 114.14 1.17 M85.27 34.38 C92.9 25.6, 100.53 16.82, 114.14 1.17 M90.92 33.98 C101.23 22.12, 111.53 10.26, 118.47 2.28 M90.92 33.98 C100.98 22.41, 111.04 10.83, 118.47 2.28 M95.9 34.34 C103.84 25.21, 111.77 16.09, 120.83 5.66 M95.9 34.34 C104.41 24.55, 112.93 14.76, 120.83 5.66 M101.55 33.95 C108.39 26.08, 115.23 18.2, 122.54 9.8 M101.55 33.95 C106.31 28.46, 111.08 22.98, 122.54 9.8 M106.53 34.31 C110.08 30.23, 113.63 26.15, 122.28 16.19 M106.53 34.31 C112.59 27.34, 118.65 20.37, 122.28 16.19 M112.83 33.16 C116.14 29.36, 119.44 25.56, 122.02 22.59 M112.83 33.16 C115.76 29.79, 118.68 26.43, 122.02 22.59" stroke="#a5d8ff" stroke-width="0.5" fill="none"></path><path d="M8.25 0 M8.25 0 C47.37 0, 86.48 0, 112.56 0 M112.56 0 C118.06 0, 120.81 2.75, 120.81 8.25 M120.81 8.25 C120.81 12.85, 120.81 17.44, 120.81 24.75 M120.81 24.75 C120.81 30.25, 118.06 33, 112.56 33 M112.56 33 C78.44 33, 44.32 33, 8.25 33 M8.25 33 C2.75 33, 0 30.25, 0 24.75 M0 24.75 C0 21.1, 0 17.46, 0 8.25 M0 8.25 C0 2.75, 2.75 0, 8.25 0" stroke="#1971c2" stroke-width="1.5" fill="none" stroke-dasharray="8 9"></path></g><g transform="translate(721.2462131990223 171.02084239318773) rotate(0 24.483333587646484 11.5)"><text x="24.483333587646484" y="0" font-family="Helvetica, Segoe UI Emoji" font-size="20px" fill="#1971c2" text-anchor="middle" style="white-space: pre;" direction="ltr" dominant-baseline="text-before-edge">Login</text></g><g stroke-linecap="round" transform="translate(443.6932065268811 274.2918187146661) rotate(0 74.86370826951998 17.608765527803513)"><path d="M2.34 2.04 C2.34 2.04, 2.34 2.04, 2.34 2.04 M2.34 2.04 C2.34 2.04, 2.34 2.04, 2.34 2.04 M0.77 9.94 C2.95 7.44, 5.13 4.93, 9.3 0.13 M0.77 9.94 C4.08 6.14, 7.39 2.33, 9.3 0.13 M1.16 15.59 C5.54 10.55, 9.92 5.52, 14.29 0.49 M1.16 15.59 C5.45 10.66, 9.73 5.74, 14.29 0.49 M1.56 21.23 C5.32 16.9, 9.09 12.57, 19.93 0.1 M1.56 21.23 C7.93 13.9, 14.3 6.58, 19.93 0.1 M1.3 27.63 C10.5 17.04, 19.7 6.45, 24.92 0.46 M1.3 27.63 C8.93 18.85, 16.56 10.07, 24.92 0.46 M3 31.76 C13.29 19.93, 23.58 8.1, 30.56 0.06 M3 31.76 C8.71 25.19, 14.43 18.62, 30.56 0.06 M5.37 35.14 C12.01 27.5, 18.66 19.85, 35.55 0.42 M5.37 35.14 C11.88 27.65, 18.39 20.16, 35.55 0.42 M9.7 36.26 C21.84 22.29, 33.99 8.32, 41.19 0.03 M9.7 36.26 C16.57 28.35, 23.44 20.45, 41.19 0.03 M15.34 35.86 C25.47 24.21, 35.59 12.56, 46.18 0.39 M15.34 35.86 C25.34 24.36, 35.34 12.86, 46.18 0.39 M20.33 36.22 C30.51 24.51, 40.69 12.8, 51.82 0 M20.33 36.22 C28.88 26.39, 37.42 16.55, 51.82 0 M25.97 35.83 C34.41 26.12, 42.85 16.41, 56.81 0.36 M25.97 35.83 C32.53 28.29, 39.08 20.75, 56.81 0.36 M30.96 36.19 C41.16 24.45, 51.36 12.72, 62.45 -0.04 M30.96 36.19 C40.5 25.21, 50.04 14.23, 62.45 -0.04 M36.6 35.79 C44.98 26.15, 53.36 16.51, 67.44 0.32 M36.6 35.79 C45.5 25.56, 54.39 15.32, 67.44 0.32 M41.59 36.15 C53.59 22.34, 65.6 8.53, 73.08 -0.07 M41.59 36.15 C50.8 25.56, 60.01 14.96, 73.08 -0.07 M47.23 35.76 C59.4 21.76, 71.57 7.76, 78.07 0.29 M47.23 35.76 C53.51 28.54, 59.78 21.32, 78.07 0.29 M52.22 36.12 C62.87 23.86, 73.52 11.61, 83.05 0.65 M52.22 36.12 C60.33 26.79, 68.44 17.46, 83.05 0.65 M57.21 36.48 C68.87 23.05, 80.54 9.63, 88.7 0.25 M57.21 36.48 C65.16 27.32, 73.12 18.17, 88.7 0.25 M62.85 36.08 C72.81 24.63, 82.76 13.18, 93.68 0.61 M62.85 36.08 C71.54 26.08, 80.24 16.08, 93.68 0.61 M67.84 36.44 C79.93 22.53, 92.02 8.63, 99.33 0.22 M67.84 36.44 C79.65 22.85, 91.47 9.26, 99.33 0.22 M73.48 36.05 C81.99 26.25, 90.51 16.46, 104.31 0.58 M73.48 36.05 C81.49 26.83, 89.51 17.61, 104.31 0.58 M78.47 36.41 C87.14 26.43, 95.82 16.44, 109.96 0.18 M78.47 36.41 C89.6 23.6, 100.74 10.79, 109.96 0.18 M84.11 36.01 C91.02 28.06, 97.93 20.12, 114.94 0.54 M84.11 36.01 C94.95 23.54, 105.8 11.07, 114.94 0.54 M89.1 36.37 C99.88 23.97, 110.66 11.57, 120.59 0.15 M89.1 36.37 C95.85 28.6, 102.6 20.83, 120.59 0.15 M94.74 35.98 C102.2 27.4, 109.65 18.82, 125.57 0.51 M94.74 35.98 C105.7 23.37, 116.66 10.77, 125.57 0.51 M99.73 36.34 C110.36 24.11, 120.99 11.88, 131.22 0.11 M99.73 36.34 C106.9 28.08, 114.08 19.83, 131.22 0.11 M105.37 35.95 C113.41 26.7, 121.44 17.46, 136.2 0.47 M105.37 35.95 C115.03 24.83, 124.69 13.72, 136.2 0.47 M110.36 36.31 C118.7 26.71, 127.05 17.11, 141.19 0.83 M110.36 36.31 C119.85 25.38, 129.35 14.46, 141.19 0.83 M116 35.91 C124.09 26.6, 132.18 17.29, 146.18 1.19 M116 35.91 C125.39 25.11, 134.78 14.3, 146.18 1.19 M120.99 36.27 C126.83 29.54, 132.68 22.82, 149.2 3.82 M120.99 36.27 C126.98 29.38, 132.97 22.49, 149.2 3.82 M126.63 35.88 C133.91 27.5, 141.19 19.13, 150.25 8.71 M126.63 35.88 C133.21 28.31, 139.79 20.74, 150.25 8.71 M131.62 36.24 C136.57 30.54, 141.52 24.84, 149.99 15.1 M131.62 36.24 C137.91 29, 144.2 21.76, 149.99 15.1 M137.26 35.84 C140.76 31.81, 144.26 27.78, 149.72 21.5 M137.26 35.84 C142.11 30.26, 146.96 24.69, 149.72 21.5 M142.25 36.2 C143.95 34.25, 145.65 32.29, 149.46 27.9 M142.25 36.2 C144.73 33.35, 147.2 30.5, 149.46 27.9" stroke="#a5d8ff" stroke-width="0.5" fill="none"></path><path d="M8.8 0 M8.8 0 C54.08 0, 99.36 0, 140.92 0 M140.92 0 C146.79 0, 149.73 2.93, 149.73 8.8 M149.73 8.8 C149.73 14.95, 149.73 21.09, 149.73 26.41 M149.73 26.41 C149.73 32.28, 146.79 35.22, 140.92 35.22 M140.92 35.22 C91.05 35.22, 41.18 35.22, 8.8 35.22 M8.8 35.22 C2.93 35.22, 0 32.28, 0 26.41 M0 26.41 C0 20.58, 0 14.74, 0 8.8 M0 8.8 C0 2.93, 2.93 0, 8.8 0" stroke="#1971c2" stroke-width="1.5" fill="none" stroke-dasharray="8 9"></path></g><g transform="translate(476.2902483840471 280.40058424246956) rotate(0 42.266666412353516 11.5)"><text x="42.266666412353516" y="0" font-family="Helvetica, Segoe UI Emoji" font-size="20px" fill="#1971c2" text-anchor="middle" style="white-space: pre;" direction="ltr" dominant-baseline="text-before-edge">Checkout</text></g></svg>