<?xml version="1.0" encoding="UTF-8"?>
<svg id="_Layer_" data-name="&amp;lt;Layer&amp;gt;" xmlns="http://www.w3.org/2000/svg" viewBox="0 0 1179.39 175.46">
  <defs>
    <style>
      .cls-1, .cls-2 {
        fill: #fff;
      }

      .cls-3 {
        fill: #ff5b24;
      }

      .cls-2 {
        font-family: VippsDisplay-Regular, 'Vipps Display';
        font-size: 85.23px;
      }

      .cls-4 {
        fill: #ff985f;
        fill-rule: evenodd;
      }
    </style>
  </defs>
  <g>
    <path class="cls-3" d="m239.7,22.11c-4.12-4.12-1.2-11.15,4.62-11.15h108.37c3.61,0,6.53,2.93,6.53,6.53v108.37c0,5.82-7.04,8.74-11.15,4.62L239.7,22.11Z"/>
    <rect class="cls-3" x="228.55" y="10.96" width="722.29" height="153.54" rx="76.77" ry="76.77"/>
  </g>
  <text class="cls-2" transform="translate(358.19 113.99)"><tspan x="0" y="0">partner</tspan></text>
  <g>
    <circle class="cls-1" cx="872.34" cy="87.73" r="70"/>
    <path class="cls-3" d="m854.39,69.31h46.02v52.24h-46.02v-52.24Z"/>
    <path class="cls-4" d="m939.8,69.31h-54.79c-.13-4.56.2-9.13.99-13.62.15-.7.22-1.4.22-2.09,0-4.61-3.21-8.75-7.9-9.75-5.39-1.15-10.69,2.29-11.84,7.68-.99,5.2-1.49,10.49-1.49,15.79,0,.67,0,1.33.02,2h-18.71c-4.81,0-8.71,3.9-8.71,8.71s3.9,8.71,8.71,8.71c-4.81,0-8.71,3.9-8.71,8.71s3.9,8.71,8.71,8.71c-4.81,0-8.71,3.9-8.71,8.71s3.9,8.71,8.71,8.71h15.83c4.81,0,8.71-3.9,8.71-8.71s-3.9-8.7-8.7-8.71c4.09,0,7.63-2.85,8.5-6.84,3.8,8.98,9.97,16.74,17.86,22.46,2.1,1.54,4.72,2.18,7.29,1.81h37.77c5.53-10.04,8.67-21.57,8.67-33.83,0-6.37-.85-12.55-2.44-18.42Zm-72.13,19.4s0,0,0,0c-1.55-1.27-3.49-1.97-5.5-1.97,1.66,0,3.29-.48,4.68-1.37.24,1.1.51,2.22.82,3.34h0Z"/>
  </g>
</svg>