<?xml version="1.0" encoding="UTF-8"?>
<svg id="_Layer_" data-name="&amp;lt;Layer&amp;gt;" xmlns="http://www.w3.org/2000/svg" viewBox="0 0 1179.39 175.46">
  <defs>
    <style>
      .cls-1, .cls-2 {
        fill: #fff;
      }

      .cls-3 {
        fill: #5a78ff;
      }

      .cls-2 {
        font-family: VippsDisplay-Regular, 'Vipps Display';
        font-size: 85.23px;
      }

      .cls-4 {
        fill: #ff985f;
      }

      .cls-4, .cls-5 {
        fill-rule: evenodd;
      }

      .cls-5 {
        fill: #ff7438;
      }
    </style>
  </defs>
  <g>
    <path class="cls-3" d="m140.33,22.11c-4.12-4.12-1.2-11.15,4.62-11.15h108.37c3.61,0,6.53,2.93,6.53,6.53v108.37c0,5.82-7.04,8.74-11.15,4.62L140.33,22.11Z"/>
    <rect class="cls-3" x="129.17" y="10.96" width="921.04" height="153.54" rx="76.77" ry="76.77"/>
  </g>
  <text class="cls-2" transform="translate(258.82 113.99)"><tspan x="0" y="0">partner plus</tspan></text>
  <g>
    <circle class="cls-1" cx="971.72" cy="87.73" r="70"/>
    <path class="cls-5" d="m1033.7,74.74c-2.9-4.98-9.28-6.69-14.28-3.83l-46.82,27.03c-4.93,3.01-6.49,9.44-3.49,14.37,2.9,4.77,9.04,6.41,13.94,3.74l46.83-27.04c4.98-2.9,6.69-9.27,3.83-14.28Z"/>
    <path class="cls-4" d="m1017.27,66.88l-25.94,37.08c-1.64,4.54-4.21,8.7-7.54,12.2v40.48c-3.94.69-8,1.05-12.14,1.05-10.28,0-20.04-2.22-28.83-6.2v-28.22c-8.4-4.21-14.75-11.63-17.61-20.58-1.63-5.54,1.53-11.35,7.08-12.99,5.36-1.58,11.01,1.33,12.84,6.61,2.35,7.38,10.24,11.46,17.62,9.11,4.08-1.3,7.35-4.4,8.86-8.41.12-.54.28-1.07.49-1.58,1.88-7.51-2.68-15.13-10.19-17.02-4.66-1.17-9.6.13-13.08,3.45-4.19,3.97-10.8,3.8-14.78-.39-3.97-4.19-3.8-10.8.39-14.78,6.76-6.4,15.4-9.58,24.03-9.58,9.25,0,18.49,3.66,25.36,10.9,1.39,1.47,2.66,3.06,3.78,4.75l12.56-17.91c3.32-4.73,9.84-5.88,14.57-2.56,4.73,3.32,5.88,9.84,2.56,14.57Z"/>
  </g>
</svg>