<?xml version="1.0" encoding="UTF-8"?>
<svg id="_Layer_" data-name="&amp;lt;Layer&amp;gt;" xmlns="http://www.w3.org/2000/svg" viewBox="0 0 1179.39 175.46">
  <defs>
    <style>
      .cls-1, .cls-2 {
        fill: #fff;
      }

      .cls-3 {
        fill: #524e69;
      }

      .cls-2 {
        font-family: VippsDisplay-Regular, 'Vipps Display';
        font-size: 85.23px;
      }

      .cls-4 {
        fill: #f9b691;
      }

      .cls-4, .cls-5, .cls-6 {
        fill-rule: evenodd;
      }

      .cls-5 {
        fill: #792716;
      }

      .cls-6 {
        fill: rgba(255, 91, 36, .5);
      }
    </style>
  </defs>
  <g>
    <path d="m11.15,22.11c-4.12-4.12-1.2-11.15,4.62-11.15h108.37c3.61,0,6.53,2.93,6.53,6.53v108.37c0,5.82-7.04,8.74-11.15,4.62L11.15,22.11Z"/>
    <rect x="0" y="10.96" width="1138.84" height="153.54" rx="76.77" ry="76.77"/>
  </g>
  <text class="cls-2" transform="translate(129.65 113.99)"><tspan x="0" y="0">partner premium</tspan></text>
  <g>
    <circle class="cls-3" cx="1060.34" cy="87.73" r="70"/>
    <path class="cls-5" d="m1123.76,117.4c-7.84,16.73-22.11,29.85-39.63,36.18l-23.57-23.57-29.11-29.12-5.78-5.78,37.9-37.91,6.31,6.31s0,0,0,0l28.52,28.52,25.35,25.35Z"/>
    <path class="cls-6" d="m1123.76,117.4c-7.84,16.73-22.11,29.85-39.63,36.18l-23.57-23.57-29.11-29.12-5.78-5.78,37.9-37.91,6.31,6.31s0,0,0,0l28.52,28.52,25.35,25.35Z"/>
    <path class="cls-4" d="m1102.04,88.41l-3.64,3.64-2.99,2.99.05.05-34.9,34.92-23.68,23.69c-17.56-6.24-31.9-19.3-39.82-35.99l25.53-25.53,29.3-29.3c.23-.3.48-.59.74-.86l8.03-8.03,3.47-3.47c3.48-3.5,9.13-3.52,12.63-.04,3.5,3.48,3.52,9.13.04,12.63,3.5-3.48,9.16-3.46,12.63.04,3.48,3.5,3.46,9.16-.04,12.63,1.74-1.74,4.03-2.62,6.32-2.62s4.57.87,6.32,2.62c3.49,3.49,3.49,9.14,0,12.63Z"/>
    <path class="cls-5" d="m1068.59,74.77c3.55-3.55,3.55-9.31,0-12.86,0,0,0,0,0,0l-11.49-11.49c-3.56-3.55-9.31-3.54-12.86.02-3.08,3.08-3.53,7.92-1.09,11.52-4.14-2.84-9.8-1.78-12.64,2.37-2.12,3.1-2.12,7.17,0,10.27-4.16-2.82-9.81-1.73-12.63,2.42-2.44,3.61-1.99,8.44,1.09,11.52l11.49,11.49c3.54,3.56,9.3,3.57,12.86.03,3.1-3.09,3.56-7.95,1.09-11.57,4.15,2.82,9.81,1.75,12.63-2.41,2.1-3.09,2.1-7.14,0-10.23,3.61,2.45,8.45,2,11.54-1.09Z"/>
    <path class="cls-6" d="m1068.59,74.77c3.55-3.55,3.55-9.31,0-12.86,0,0,0,0,0,0l-11.49-11.49c-3.56-3.55-9.31-3.54-12.86.02-3.08,3.08-3.53,7.92-1.09,11.52-4.14-2.84-9.8-1.78-12.64,2.37-2.12,3.1-2.12,7.17,0,10.27-4.16-2.82-9.81-1.73-12.63,2.42-2.44,3.61-1.99,8.44,1.09,11.52l11.49,11.49c3.54,3.56,9.3,3.57,12.86.03,3.1-3.09,3.56-7.95,1.09-11.57,4.15,2.82,9.81,1.75,12.63-2.41,2.1-3.09,2.1-7.14,0-10.23,3.61,2.45,8.45,2,11.54-1.09Z"/>
    <path class="cls-1" d="m1050.23,31.2c0,3.2,1.42,5.18,4.53,5.7-3.16.49-4.59,2.44-4.82,5.41.04-2.89-1.24-4.89-4.53-5.55,3.54-1.18,4.45-3.27,4.82-5.55Z"/>
    <path class="cls-1" d="m1061.53,41.71c0,1.76.78,2.86,2.5,3.14-1.74.27-2.53,1.35-2.66,2.98.02-1.59-.68-2.7-2.5-3.06,1.95-.65,2.45-1.8,2.66-3.06Z"/>
    <path class="cls-1" d="m1064.67,25.02c0,1.94.86,3.14,2.75,3.46-1.92.29-2.78,1.48-2.92,3.28.03-1.75-.75-2.97-2.75-3.37,2.15-.71,2.7-1.98,2.92-3.37Z"/>
  </g>
</svg>