<?xml version="1.0" encoding="utf-8"?>
<!-- Generator: Adobe Illustrator 27.7.0, SVG Export Plug-In . SVG Version: 6.00 Build 0)  -->
<svg version="1.1" id="_Layer_" xmlns="http://www.w3.org/2000/svg" xmlns:xlink="http://www.w3.org/1999/xlink" x="0px" y="0px"
	 viewBox="0 0 1179.4 175.5" style="enable-background:new 0 0 1179.4 175.5;" xml:space="preserve">
<style type="text/css">
	.st0{fill:#FF5B24;}
	.st1{enable-background:new    ;}
	.st2{fill:#FFFFFF;}
	.st3{fill-rule:evenodd;clip-rule:evenodd;fill:#FF985F;}
</style>
<g>
	<g>
		<path class="st0" d="M239.7,22.1c-4.1-4.1-1.2-11.1,4.6-11.1h108.4c3.6,0,6.5,2.9,6.5,6.5v108.4c0,5.8-7,8.7-11.2,4.6L239.7,22.1z
			"/>
		<path class="st0" d="M305.3,11h568.7c42.4,0,76.8,34.4,76.8,76.8v0c0,42.4-34.4,76.8-76.8,76.8H305.3c-42.4,0-76.8-34.4-76.8-76.8
			v0C228.6,45.3,262.9,11,305.3,11z"/>
	</g>
	<g class="st1">
		<path class="st2" d="M412.8,88.7c0,17.9-10.7,26.6-21.7,26.6c-5.9,0-11.1-2.3-15.1-7.8V131h-12V64.9h12v6.7
			c3.3-4.6,8.5-8.1,16.1-8.1C401.7,63.5,412.8,71.5,412.8,88.7z M376,89.3c0,10.1,5.8,15.3,12.3,15.3c6.1,0,12.4-4.9,12.4-15.3
			c0-10.2-6.3-15.2-12.4-15.2C381.8,74.1,376,78.8,376,89.3z"/>
		<path class="st2" d="M419,88.9c0-17.1,10.9-25.4,21.9-25.4c5.9,0,10.9,2.2,14.9,7.7v-6.3h12V114h-12v-6.9
			c-3.4,4.6-8.6,8.2-16.3,8.2C430,115.3,419,106.9,419,88.9z M431.1,89.5c0,10.5,6.3,15.1,12.4,15.1c6.6,0,12.4-4.3,12.4-15.1
			c0-10.4-5.8-15.4-12.3-15.4C437.5,74.1,431.1,78.9,431.1,89.5z"/>
		<path class="st2" d="M491.4,90v24h-12V64.9h12v10.4c3.8-9.4,9.6-11.8,14.3-11.8c1.3,0,2.6,0.3,3.8,0.7L508.7,78
			c-1.9-0.7-3.9-1.1-5.6-1.1C497.4,76.9,491.4,79.5,491.4,90z"/>
		<path class="st2" d="M532.1,51.3v13.6h12.1v10h-12.1v23.8c0,3.5,1.1,5.3,4.8,5.3c2.2,0,4.3-0.3,6.6-0.9l1.7,9.3
			c-2.9,1.3-7.5,2.5-11.8,2.5c-10.1,0-13.3-5.8-13.3-13.1V74.9h-8.4v-10h8.4V53L532.1,51.3z"/>
		<path class="st2" d="M564.6,85.9v28h-12V64.9h12v7.2c3.4-6.2,9.7-8.6,15.2-8.6c8.5,0,16.6,4.3,16.6,17.6V114h-12V85.7
			c0-8.2-4-11.2-9.3-11.2C569.1,74.5,564.6,78.1,564.6,85.9z"/>
		<path class="st2" d="M616.8,92c0.8,7.7,5.2,12.7,13,12.7c7.4,0,10.4-3,11.3-7.7l10.9,1.7c-1.9,11.3-12.8,16.5-21.8,16.5
			c-14.5,0-25.7-9.8-25.7-26c0-15.8,10.6-25.7,24.5-25.7c13.1,0,22.5,10.2,22.5,24.7V92H616.8z M617.1,83.4h22.9
			c-1-7.1-5.7-9.8-11.4-9.8C622.8,73.6,618.6,76.6,617.1,83.4z"/>
		<path class="st2" d="M672.9,90v24h-12V64.9h12v10.4c3.8-9.4,9.6-11.8,14.3-11.8c1.3,0,2.6,0.3,3.8,0.7L690.2,78
			c-1.9-0.7-3.9-1.1-5.6-1.1C678.8,76.9,672.9,79.5,672.9,90z"/>
	</g>
	<g>
		<circle class="st2" cx="872.3" cy="87.7" r="70"/>
		<path class="st0" d="M854.4,69.3h46v52.2h-46V69.3z"/>
		<path class="st3" d="M939.8,69.3H885c-0.1-4.6,0.2-9.1,1-13.6c0.2-0.7,0.2-1.4,0.2-2.1c0-4.6-3.2-8.8-7.9-9.8
			c-5.4-1.2-10.7,2.3-11.8,7.7c-1,5.2-1.5,10.5-1.5,15.8c0,0.7,0,1.3,0,2h-18.7c-4.8,0-8.7,3.9-8.7,8.7s3.9,8.7,8.7,8.7
			c-4.8,0-8.7,3.9-8.7,8.7s3.9,8.7,8.7,8.7c-4.8,0-8.7,3.9-8.7,8.7s3.9,8.7,8.7,8.7h15.8c4.8,0,8.7-3.9,8.7-8.7s-3.9-8.7-8.7-8.7
			c4.1,0,7.6-2.8,8.5-6.8c3.8,9,10,16.7,17.9,22.5c2.1,1.5,4.7,2.2,7.3,1.8h37.8c5.5-10,8.7-21.6,8.7-33.8
			C942.2,81.4,941.4,75.2,939.8,69.3L939.8,69.3z M867.7,88.7L867.7,88.7c-1.6-1.3-3.5-2-5.5-2c1.7,0,3.3-0.5,4.7-1.4
			C867.1,86.5,867.4,87.6,867.7,88.7C867.7,88.7,867.7,88.7,867.7,88.7z"/>
	</g>
</g>
</svg>
