<?xml version="1.0" encoding="UTF-8"?>
<svg id="Visueller" xmlns="http://www.w3.org/2000/svg" viewBox="0 0 1080 1080">
  <defs>
    <style>
      .cls-1 {
        font-family: VippsDisplay-Regular, 'Vipps Display';
        font-size: 90px;
      }

      .cls-1, .cls-2 {
        fill: #fff;
      }

      .cls-3 {
        fill: #524e69;
      }

      .cls-4 {
        fill: #f9b691;
      }

      .cls-4, .cls-5, .cls-6 {
        fill-rule: evenodd;
      }

      .cls-5 {
        fill: #792716;
      }

      .cls-6 {
        fill: rgba(255, 91, 36, .5);
      }
    </style>
  </defs>
  <circle cx="540" cy="540" r="527.78"/>
  <circle class="cls-3" cx="540" cy="540" r="357.54"/>
  <text class="cls-1" transform="translate(216.96 278.24) rotate(-46.67)"><tspan x="0" y="0">V</tspan></text>
  <text class="cls-1" transform="translate(260.2 233.8) rotate(-40.77)"><tspan x="0" y="0">i</tspan></text>
  <text class="cls-1" transform="translate(276.98 218.04) rotate(-35.1)"><tspan x="0" y="0">p</tspan></text>
  <text class="cls-1" transform="translate(325.06 184.06) rotate(-26.96)"><tspan x="0" y="0">p</tspan></text>
  <text class="cls-1" transform="translate(377.87 157.55) rotate(-19.69)"><tspan x="0" y="0">s</tspan></text>
  <text class="cls-1" transform="translate(421.48 142.4) rotate(-14.87)"><tspan x="0" y="0"> </tspan></text>
  <text class="cls-1" transform="translate(442.78 134.63) rotate(-7.57)"><tspan x="0" y="0">M</tspan></text>
  <text class="cls-1" transform="translate(524.86 124.69) rotate(1.78)"><tspan x="0" y="0">o</tspan></text>
  <text class="cls-1" transform="translate(579.96 126.13) rotate(9.66)"><tspan x="0" y="0">b</tspan></text>
  <text class="cls-1" transform="translate(638.4 136.92) rotate(15.38)"><tspan x="0" y="0">i</tspan></text>
  <text class="cls-1" transform="translate(661.1 143.15) rotate(18.66)"><tspan x="0" y="0">l</tspan></text>
  <text class="cls-1" transform="translate(683.2 149.75) rotate(24.07)"><tspan x="0" y="0">e</tspan></text>
  <text class="cls-1" transform="translate(732.91 171.78) rotate(31.66)"><tspan x="0" y="0">P</tspan></text>
  <text class="cls-1" transform="translate(778.82 199.66) rotate(39.27)"><tspan x="0" y="0">a</tspan></text>
  <text class="cls-1" transform="translate(824.42 237.15) rotate(46.78)"><tspan x="0" y="0">y</tspan></text>
  <text class="cls-1" transform="translate(167.28 826.77) rotate(48.69)"><tspan x="0" y="0">p</tspan></text>
  <text class="cls-1" transform="translate(211.35 876.34) rotate(40.65)"><tspan x="0" y="0">a</tspan></text>
  <text class="cls-1" transform="translate(261.5 918.23) rotate(34.04)"><tspan x="0" y="0">r</tspan></text>
  <text class="cls-1" transform="translate(296.74 941.83) rotate(28.9)"><tspan x="0" y="0">t</tspan></text>
  <text class="cls-1" transform="translate(333.94 962.73) rotate(22.47)"><tspan x="0" y="0">n</tspan></text>
  <text class="cls-1" transform="translate(392.5 986.51) rotate(14.81)"><tspan x="0" y="0">e</tspan></text>
  <text class="cls-1" transform="translate(451.17 1001.28) rotate(8.45)"><tspan x="0" y="0">r</tspan></text>
  <text class="cls-1" transform="translate(492.52 1007.05) rotate(4.26)"><tspan x="0" y="0"> </tspan></text>
  <text class="cls-1" transform="translate(520.33 1009.83) rotate(-1.29)"><tspan x="0" y="0">p</tspan></text>
  <text class="cls-1" transform="translate(585.55 1007.49) rotate(-7.87)"><tspan x="0" y="0">r</tspan></text>
  <text class="cls-1" transform="translate(628.43 1001.81) rotate(-14.23)"><tspan x="0" y="0">e</tspan></text>
  <text class="cls-1" transform="translate(689.83 987.21) rotate(-24.13)"><tspan x="0" y="0">m</tspan></text>
  <text class="cls-1" transform="translate(777 945.29) rotate(-31.86)"><tspan x="0" y="0">i</tspan></text>
  <text class="cls-1" transform="translate(801.17 931.01) rotate(-37.32)"><tspan x="0" y="0">u</tspan></text>
  <text class="cls-1" transform="translate(853.29 892.35) rotate(-47.2)"><tspan x="0" y="0">m</tspan></text>
  <path class="cls-5" d="m863.92,691.55c-40.05,85.46-112.93,152.48-202.41,184.8l-120.37-120.37-148.71-148.74-29.5-29.5,193.57-193.61,32.23,32.23s.01.02.02.03l145.69,145.68,129.48,129.48Z"/>
  <path class="cls-6" d="m863.92,691.55c-40.05,85.46-112.93,152.48-202.41,184.8l-120.37-120.37-148.71-148.74-29.5-29.5,193.57-193.61,32.23,32.23s.01.02.02.03l145.69,145.68,129.48,129.48Z"/>
  <path class="cls-4" d="m753.01,543.48l-18.57,18.59-15.27,15.28.25.25-178.28,178.38-120.93,120.99c-89.71-31.88-162.92-98.58-203.37-183.83l130.42-130.42,149.65-149.65c1.17-1.54,2.43-3.01,3.79-4.39l41-41.03,17.73-17.74c17.76-17.88,46.65-17.98,64.53-.22,17.88,17.76,17.97,46.65.21,64.53,17.88-17.76,46.77-17.67,64.53.21,17.76,17.88,17.66,46.77-.22,64.53,8.91-8.91,20.59-13.36,32.27-13.36s23.35,4.45,32.26,13.36c17.82,17.81,17.82,46.7,0,64.52Z"/>
  <path class="cls-5" d="m582.16,473.81c18.14-18.13,18.15-47.54.02-65.69,0,0-.01-.01-.02-.02l-58.67-58.67c-18.16-18.11-47.57-18.07-65.69.09-15.71,15.76-18.04,40.44-5.56,58.86-21.17-14.49-50.07-9.07-64.56,12.1-10.82,15.81-10.82,36.65,0,52.46-21.23-14.39-50.11-8.85-64.51,12.38-12.49,18.42-10.16,43.1,5.56,58.86l58.67,58.67c18.1,18.18,47.51,18.24,65.69.13,15.84-15.78,18.2-40.61,5.59-59.08,21.21,14.42,50.1,8.92,64.52-12.29,10.72-15.76,10.72-36.47,0-52.23,18.44,12.53,43.19,10.19,58.95-5.57Z"/>
  <path class="cls-6" d="m582.16,473.81c18.14-18.13,18.15-47.54.02-65.69,0,0-.01-.01-.02-.02l-58.67-58.67c-18.16-18.11-47.57-18.07-65.69.09-15.71,15.76-18.04,40.44-5.56,58.86-21.17-14.49-50.07-9.07-64.56,12.1-10.82,15.81-10.82,36.65,0,52.46-21.23-14.39-50.11-8.85-64.51,12.38-12.49,18.42-10.16,43.1,5.56,58.86l58.67,58.67c18.1,18.18,47.51,18.24,65.69.13,15.84-15.78,18.2-40.61,5.59-59.08,21.21,14.42,50.1,8.92,64.52-12.29,10.72-15.76,10.72-36.47,0-52.23,18.44,12.53,43.19,10.19,58.95-5.57Z"/>
  <path class="cls-2" d="m488.38,251.25c.02,16.35,7.23,26.48,23.14,29.11-16.14,2.48-23.44,12.46-24.63,27.61.22-14.75-6.33-24.97-23.14-28.36,18.08-6.01,22.74-16.7,24.63-28.36Z"/>
  <path class="cls-2" d="m546.09,304.93c0,9.01,3.99,14.6,12.75,16.05-8.9,1.37-12.92,6.87-13.58,15.22.12-8.13-3.49-13.77-12.75-15.63,9.97-3.31,12.54-9.21,13.58-15.63Z"/>
  <path class="cls-2" d="m562.15,219.68c0,9.91,4.39,16.06,14.03,17.65-9.79,1.51-14.21,7.56-14.94,16.75.13-8.94-3.84-15.15-14.03-17.2,10.97-3.64,13.79-10.13,14.94-17.2Z"/>
</svg>