<?xml version="1.0" encoding="utf-8"?>
<!-- Generator: Adobe Illustrator 27.7.0, SVG Export Plug-In . SVG Version: 6.00 Build 0)  -->
<svg version="1.1" id="Visueller" xmlns="http://www.w3.org/2000/svg" xmlns:xlink="http://www.w3.org/1999/xlink" x="0px" y="0px"
	 viewBox="0 0 1080 1080" style="enable-background:new 0 0 1080 1080;" xml:space="preserve">
<style type="text/css">
	.st0{fill:#524E69;}
	.st1{enable-background:new    ;}
	.st2{fill:#FFFFFF;}
	.st3{fill-rule:evenodd;clip-rule:evenodd;fill:#792716;}
	.st4{fill-rule:evenodd;clip-rule:evenodd;}
	.st5{fill-rule:evenodd;clip-rule:evenodd;fill:#F9B691;}
</style>
<circle cx="540" cy="540" r="527.8"/>
<circle class="st0" cx="540" cy="540" r="357.5"/>
<g class="st1">
	<path class="st2" d="M234.4,259.8l-66.1-28.2l9.8-10.3l48.3,22.8l-25.6-46.9l9.8-10.3l32.1,64.4L234.4,259.8z"/>
</g>
<g class="st1">
	<path class="st2" d="M231,170.1c2.7,3.1,2.4,7.2-0.8,10c-3.2,2.8-7.3,2.5-10-0.7s-2.4-7.2,0.8-10
		C224.3,166.6,228.3,166.9,231,170.1z M240.5,182.3l33.9,39.3l-9.5,8.2L231,190.5L240.5,182.3z"/>
</g>
<g class="st1">
	<path class="st2" d="M308.8,163c10.9,15.5,6.9,29.5-2.6,36.2c-5.1,3.6-11,4.7-17.7,2.5l14.3,20.3l-10.4,7.3l-40.2-57.1l10.4-7.3
		l4.1,5.8c0.1-6,2.4-12.2,9-16.8C283.9,148.1,298.4,148.2,308.8,163z M277.4,185.9c6.1,8.7,14.3,9.7,19.9,5.8
		c5.3-3.7,7.7-11.8,1.4-20.8c-6.2-8.8-14.7-9.3-19.9-5.6C273.2,169.2,271,176.8,277.4,185.9z"/>
</g>
<g class="st1">
	<path class="st2" d="M364.4,134.1c8.6,16.8,2.6,30.2-7.7,35.4c-5.5,2.8-11.5,3.1-17.9-0.1l11.3,22.1l-11.3,5.8L307,135.1l11.3-5.8
		l3.2,6.3c0.9-5.9,4.1-11.7,11.3-15.3C341.8,115.8,356.2,118,364.4,134.1z M330,152.3c4.8,9.5,12.8,11.7,18.9,8.6
		c5.8-2.9,9.3-10.6,4.4-20.4c-4.9-9.6-13.2-11.3-18.9-8.4C328.2,135.2,325,142.4,330,152.3z"/>
</g>
<g class="st1">
	<path class="st2" d="M382.1,99.4c9.8-3.5,18.7-1.5,25.8,8.9l-10.2,5.5c-2.3-5.8-6.5-6.3-11.7-4.4c-4.1,1.5-6.4,4.3-5.4,7.1
		c0.8,2.2,3.1,3.9,8,3.2l8.8-1.4c8.6-1.4,14.8,2.4,17.4,9.6c3.8,10.6-3.9,19.3-12.9,22.5c-9.5,3.4-21.8,2.2-27.7-9.1l10.2-5.5
		c2.8,6,7.4,6.8,13.5,4.6c4.7-1.7,7.2-4.5,6.1-7.5c-0.9-2.6-3.1-4.1-8.5-3.2l-7.9,1.3c-8.4,1.4-15.2-2.5-17.8-9.6
		C365.8,110.4,374.2,102.3,382.1,99.4z"/>
</g>
<g class="st1">
	<path class="st2" d="M511.9,57.3l8.9,66.9l-12.9,1.7l-5.7-43.1l-13.8,45.2l0.1,0.4l-7,0.9l-25.4-40.1l5.7,42.7l-12.8,1.7l-8.9-66.9
		l13-1.7l29.7,44.4L499,59.1L511.9,57.3z"/>
</g>
<g class="st1">
	<path class="st2" d="M579.8,100.4c-0.5,17-12.5,27-26.5,26.5c-14-0.4-25.3-11.1-24.8-28.1S541,71.9,555,72.3
		C569.1,72.8,580.3,83.4,579.8,100.4z M541.3,99.2c-0.3,10.9,5.3,16.4,12.4,16.6c7,0.2,13-4.9,13.4-15.8
		c0.3-10.9-5.3-16.3-12.4-16.5C547.7,83.3,541.7,88.3,541.3,99.2z"/>
</g>
<g class="st1">
	<path class="st2" d="M610.2,60.5l-4.4,25.6c3.5-4.1,9.7-8,18.4-6.5c9.9,1.7,20.1,12,17.1,29.8c-3.2,18.6-15.9,25.8-27.3,23.8
		c-6.7-1.1-11.6-5.2-14.2-11.5l-1.3,7.5l-12.5-2.1l11.7-68.8L610.2,60.5z M602.9,103.6c-1.8,10.5,3.3,17,10.1,18.1
		c6.3,1.1,13.8-2.9,15.7-13.8c1.8-10.6-3.9-16.9-10.2-18C611.6,88.8,604.7,92.6,602.9,103.6z"/>
</g>
<g class="st1">
	<path class="st2" d="M670.2,91.9l-13.7,50l-12.1-3.3l13.7-50L670.2,91.9z M675.1,77.2c-1.1,4-4.6,6-8.7,4.9c-4.1-1.1-6.1-4.7-5-8.7
		c1.1-4,4.6-6,8.7-4.9S676.2,73.2,675.1,77.2z"/>
</g>
<g class="st1">
	<path class="st2" d="M701.2,83.1l-22.3,66.1l-11.9-4L689.2,79L701.2,83.1z"/>
</g>
<g class="st1">
	<path class="st2" d="M707.1,135c-2.6,7.7-0.5,14.5,7.1,17.9c7.1,3.2,11.3,1.6,14.2-2.5l9.8,6.3c-6.7,10.1-19.4,10.4-28.2,6.5
		c-14-6.2-20.6-20.5-13.6-36.1c6.8-15.2,21.3-20.3,34.8-14.2c12.7,5.7,17.3,19.5,11,33.5l-1.6,3.6L707.1,135z M711.2,126.9l22.1,9.9
		c2.1-7.3-1.3-11.9-6.8-14.4C720.8,119.8,715.5,120.9,711.2,126.9z"/>
</g>
<g class="st1">
	<path class="st2" d="M793.3,129.7c12.6,7.7,16.6,19.7,8.6,32.6c-6.8,11.1-20.9,14.3-32.9,6.9l-8.6-5.3l-11.1,18l-11.1-6.8
		l35.4-57.5L793.3,129.7z M766.7,153.9l8,4.9c6,3.7,11.7,2.5,15.4-3.6c4-6.4,2.5-12.1-3.3-15.7l-8.1-5L766.7,153.9z"/>
</g>
<g class="st1">
	<path class="st2" d="M798.1,181.2c11.5-14,25.9-13.5,34.9-6.1c4.8,3.9,7.4,9.1,7.1,16.2l4.2-5.2l9.8,8l-32.8,40.1l-9.8-8l4.6-5.6
		c-5.9,1.5-12.5,0.9-18.8-4.2C789.5,210.1,786.1,195.9,798.1,181.2z M807.6,189.8c-7,8.6-4.9,16.5,0,20.6c5.4,4.4,13,4.7,20.2-4.1
		c7-8.5,5.6-16.5,0.3-20.8C823.1,181.5,814.7,181.1,807.6,189.8z"/>
</g>
<g class="st1">
	<path class="st2" d="M814.5,250.1l9.4-6.3c0.4,1.9,1.3,4.5,3.9,7.3c5.1,5.4,10.6,2.2,13.6-4.4l21-44.9l9.7,10.3l-17.8,33.4l34-16.1
		l9.6,10.2l-53.6,22c-10.4,4.3-18.1,3.8-25-3.5C816.9,255.4,815.3,252.7,814.5,250.1z"/>
</g>
<g class="st1">
	<path class="st2" d="M225.4,852.5c-14.2,12.5-28.6,10-36.2,1.3c-4.1-4.7-5.9-10.4-4.4-17.4l-18.7,16.4l-8.4-9.5l52.5-46.1l8.4,9.5
		l-5.3,4.7c6-0.6,12.4,1.1,17.6,7.1C237.6,826.1,239,840.5,225.4,852.5z M199.3,823.7c-8,7-8.1,15.3-3.6,20.4
		c4.3,4.9,12.6,6.4,20.8-0.8c8.1-7.1,7.6-15.6,3.4-20.4C215.4,817.7,207.6,816.4,199.3,823.7z"/>
</g>
<g class="st1">
	<path class="st2" d="M231,858.4c11.8-13.7,26.2-12.8,35-5.3c4.7,4,7.2,9.3,6.7,16.4l4.3-5.1l9.6,8.3L252.9,912l-9.6-8.3l4.7-5.5
		c-5.9,1.3-12.5,0.6-18.7-4.6C221.7,887,218.7,872.8,231,858.4z M240.3,867.2c-7.2,8.4-5.3,16.4-0.5,20.6c5.3,4.5,12.9,5,20.3-3.6
		c7.2-8.3,6-16.3,0.8-20.8C256.1,859.2,247.7,858.6,240.3,867.2z"/>
</g>
<g class="st1">
	<path class="st2" d="M291.3,907.7l-14.2,21l-10.5-7.1l29-43l10.5,7.1l-6.1,9.1c8.9-5.9,15.4-4.6,19.5-1.8c1.1,0.8,2.2,1.8,2.9,2.8
		l-8.8,11.6c-1.2-1.7-2.8-3.3-4.3-4.3C304.2,899.8,297.5,898.6,291.3,907.7z"/>
</g>
<g class="st1">
	<path class="st2" d="M348.6,894.9l-6.9,12.5l11.2,6.2l-5.1,9.2l-11.2-6.2l-12.1,22c-1.8,3.2-1.7,5.5,1.7,7.3c2,1.1,4.1,1.9,6.5,2.6
		l-3.2,9.5c-3.3-0.3-8.2-1.5-12.1-3.7c-9.4-5.2-9.3-12.1-5.6-18.9l13.7-24.8l-7.8-4.3l5.1-9.2l7.8,4.3l6-11L348.6,894.9z"/>
</g>
<g class="st1">
	<path class="st2" d="M362.6,942.6l-11.3,27.4l-11.7-4.8l19.8-47.9l11.7,4.8l-2.9,7.1c5.8-4.7,13-4.5,18.3-2.3
		c8.3,3.4,14.5,10.9,9.1,23.8l-13.3,32.1l-11.7-4.8l11.4-27.6c3.3-8,0.6-12.5-4.6-14.6C371.6,933.2,365.8,934.9,362.6,942.6z"/>
</g>
<g class="st1">
	<path class="st2" d="M413.7,968.1c-1.3,8,1.9,14.4,9.9,16.5c7.6,2,11.4-0.2,13.6-4.8l10.7,4.7c-5,11.1-17.5,13.4-26.7,11
		c-14.8-3.9-23.6-17-19.3-33.5c4.3-16.1,17.7-23.4,32-19.7c13.4,3.5,20.2,16.5,16.3,31.3l-1,3.8L413.7,968.1z M416.4,959.4l23.4,6.2
		c0.9-7.5-3.2-11.5-9-13.1C424.8,950.9,419.7,952.8,416.4,959.4z"/>
</g>
<g class="st1">
	<path class="st2" d="M473.5,978.9l-3.7,25.1l-12.6-1.9l7.6-51.3l12.6,1.9l-1.6,10.9c5.5-9.2,11.9-10.8,16.8-10.1
		c1.3,0.2,2.7,0.7,3.8,1.3l-2.9,14.3c-1.9-1-3.9-1.8-5.7-2C481.8,966.2,475.1,968,473.5,978.9z"/>
</g>
<g class="st1">
	<path class="st2" d="M577.4,981.8c0.4,18.9-10.7,28.3-22.3,28.6c-6.2,0.1-11.8-2.2-16.1-7.8l0.6,24.8l-12.7,0.3l-1.6-69.8l12.7-0.3
		l0.2,7.1c3.4-4.9,8.8-8.8,16.8-8.9C565,955.5,577,963.7,577.4,981.8z M538.5,983.3c0.2,10.6,6.5,16.1,13.3,15.9
		c6.5-0.1,13-5.5,12.8-16.5c-0.2-10.8-7-15.9-13.4-15.7C544.3,967.2,538.3,972.2,538.5,983.3z"/>
</g>
<g class="st1">
	<path class="st2" d="M600.7,979.8l3.5,25.1l-12.6,1.7l-7.1-51.3l12.6-1.7l1.5,10.9c2.7-10.4,8.4-13.7,13.3-14.4
		c1.3-0.2,2.8-0.1,4,0.2l1.2,14.6c-2.1-0.4-4.3-0.6-6-0.3C605.1,965.3,599.2,968.8,600.7,979.8z"/>
</g>
<g class="st1">
	<path class="st2" d="M638.1,975.4c2.8,7.7,8.6,11.6,16.6,9.6c7.6-1.9,9.9-5.8,9.6-10.8l11.6-1.1c1,12.1-8.8,20.2-18,22.6
		c-14.8,3.8-28.9-3.4-33.1-19.9c-4.1-16.1,4.1-29.1,18.4-32.7c13.4-3.4,25.7,4.6,29.4,19.5l1,3.8L638.1,975.4z M636.2,966.5l23.5-6
		c-2.9-7-8.4-8.5-14.2-7.1C639.4,955,635.9,959.2,636.2,966.5z"/>
</g>
<g class="st1">
	<path class="st2" d="M725.5,938.8l12.1,27l-11.6,5.2l-12.2-27.3c-3.5-7.9-8.7-9-13.8-6.7c-5.8,2.6-8.6,8-5.2,15.5l12.1,27
		l-11.6,5.2l-21.2-47.3l11.6-5.2l3.1,7c0.6-7.5,5.6-12.5,10.9-14.8c6.2-2.8,13.3-3,18.9,2.6c0.4-8.6,6.1-13.8,11.7-16.3
		c8.2-3.7,17.9-3,23.6,9.7l14.2,31.7l-11.6,5.2L744.5,930c-3.5-7.9-8.7-9-13.8-6.7C724.9,925.9,722.1,931.2,725.5,938.8z"/>
</g>
<g class="st1">
	<path class="st2" d="M758.1,877.8c2.2,3.5,1.3,7.5-2.3,9.7c-3.6,2.2-7.6,1.3-9.7-2.2s-1.3-7.5,2.3-9.7
		C751.9,873.4,755.9,874.3,758.1,877.8z M765.5,891.4l27.4,44l-10.7,6.7l-27.4-44L765.5,891.4z"/>
</g>
<g class="st1">
	<path class="st2" d="M832.5,907.1l-4.8-6.3c0.9,7.1-2.9,13.9-7.6,17.5c-6.9,5.2-16.1,6.8-23.4-2.8l-22.4-29.3l10.1-7.7l18.9,24.8
		c4.9,6.4,9.9,6.3,14.2,2.9c5.2-3.9,6.7-9.9,1.8-16.4l-18.3-24l10.1-7.7l31.5,41.3L832.5,907.1z"/>
</g>
<g class="st1">
	<path class="st2" d="M867.2,833.8l21.7,20.1l-8.6,9.3l-21.9-20.3c-6.3-5.9-11.5-4.9-15.3-0.8c-4.3,4.7-4.7,10.7,1.3,16.3l21.7,20.1
		l-8.6,9.3l-38-35.2l8.6-9.3l5.6,5.2c-2.4-7.1,0.3-13.7,4.2-17.9c4.6-5,11.1-8,18.4-5c-3-8.1,0.2-15,4.4-19.6
		c6.1-6.6,15.3-9.8,25.5-0.3l25.5,23.6l-8.6,9.3l-21.9-20.3c-6.3-5.9-11.5-4.9-15.3-0.8C861.5,822.2,861.1,828.2,867.2,833.8z"/>
</g>
<path class="st3" d="M863.9,691.5C823.9,777,751,844,661.5,876.3L541.1,756L392.4,607.2l-29.5-29.5l193.6-193.6l32.2,32.2
	c0,0,0,0,0,0l145.7,145.7L863.9,691.5z"/>
<path class="st4" d="M863.9,691.5C823.9,777,751,844,661.5,876.3L541.1,756L392.4,607.2l-29.5-29.5l193.6-193.6l32.2,32.2
	c0,0,0,0,0,0l145.7,145.7L863.9,691.5z"/>
<path class="st5" d="M753,543.5l-18.6,18.6l-15.3,15.3l0.2,0.2L541.1,756L420.2,877c-89.7-31.9-162.9-98.6-203.4-183.8l130.4-130.4
	l149.6-149.6c1.2-1.5,2.4-3,3.8-4.4l41-41l17.7-17.7c17.8-17.9,46.7-18,64.5-0.2c17.9,17.8,18,46.6,0.2,64.5
	c17.9-17.8,46.8-17.7,64.5,0.2c17.8,17.9,17.7,46.8-0.2,64.5c8.9-8.9,20.6-13.4,32.3-13.4s23.3,4.5,32.3,13.4
	C770.8,496.8,770.8,525.7,753,543.5L753,543.5z"/>
<path class="st3" d="M582.2,473.8c18.1-18.1,18.2-47.5,0-65.7c0,0,0,0,0,0l-58.7-58.7c-18.2-18.1-47.6-18.1-65.7,0.1
	c-15.7,15.8-18,40.4-5.6,58.9c-21.2-14.5-50.1-9.1-64.6,12.1c-10.8,15.8-10.8,36.6,0,52.5c-21.2-14.4-50.1-8.9-64.5,12.4
	c-12.5,18.4-10.2,43.1,5.6,58.9l58.7,58.7c18.1,18.2,47.5,18.2,65.7,0.1c15.8-15.8,18.2-40.6,5.6-59.1c21.2,14.4,50.1,8.9,64.5-12.3
	c10.7-15.8,10.7-36.5,0-52.2C541.6,491.9,566.4,489.6,582.2,473.8L582.2,473.8z"/>
<path class="st4" d="M582.2,473.8c18.1-18.1,18.2-47.5,0-65.7c0,0,0,0,0,0l-58.7-58.7c-18.2-18.1-47.6-18.1-65.7,0.1
	c-15.7,15.8-18,40.4-5.6,58.9c-21.2-14.5-50.1-9.1-64.6,12.1c-10.8,15.8-10.8,36.6,0,52.5c-21.2-14.4-50.1-8.9-64.5,12.4
	c-12.5,18.4-10.2,43.1,5.6,58.9l58.7,58.7c18.1,18.2,47.5,18.2,65.7,0.1c15.8-15.8,18.2-40.6,5.6-59.1c21.2,14.4,50.1,8.9,64.5-12.3
	c10.7-15.8,10.7-36.5,0-52.2C541.6,491.9,566.4,489.6,582.2,473.8L582.2,473.8z"/>
<g>
	<path class="st2" d="M488.4,251.2c0,16.4,7.2,26.5,23.1,29.1c-16.1,2.5-23.4,12.5-24.6,27.6c0.2-14.8-6.3-25-23.1-28.4
		C481.8,273.6,486.5,262.9,488.4,251.2L488.4,251.2z"/>
</g>
<g>
	<path class="st2" d="M546.1,304.9c0,9,4,14.6,12.8,16c-8.9,1.4-12.9,6.9-13.6,15.2c0.1-8.1-3.5-13.8-12.8-15.6
		C542.5,317.3,545,311.4,546.1,304.9L546.1,304.9z"/>
</g>
<g>
	<path class="st2" d="M562.2,219.7c0,9.9,4.4,16.1,14,17.6c-9.8,1.5-14.2,7.6-14.9,16.8c0.1-8.9-3.8-15.1-14-17.2
		C558.2,233.2,561,226.7,562.2,219.7z"/>
</g>
</svg>
