<?xml version="1.0" encoding="utf-8"?>
<!-- Generator: Adobe Illustrator 27.7.0, SVG Export Plug-In . SVG Version: 6.00 Build 0)  -->
<svg version="1.1" id="Visueller" xmlns="http://www.w3.org/2000/svg" xmlns:xlink="http://www.w3.org/1999/xlink" x="0px" y="0px"
	 viewBox="0 0 1080 1080" style="enable-background:new 0 0 1080 1080;" xml:space="preserve">
<style type="text/css">
	.st0{fill:#FF5B24;}
	.st1{fill:#FFFFFF;}
	.st2{enable-background:new    ;}
	.st3{fill-rule:evenodd;clip-rule:evenodd;fill:#FF985F;}
</style>
<circle class="st0" cx="540" cy="540" r="527.8"/>
<g>
	<circle class="st1" cx="540" cy="540" r="357.5"/>
</g>
<g class="st2">
	<path class="st1" d="M234.4,259.8l-66.1-28.2l9.8-10.3l48.3,22.8l-25.6-46.9l9.8-10.3l32.1,64.4L234.4,259.8z"/>
</g>
<g class="st2">
	<path class="st1" d="M231,170.1c2.7,3.1,2.4,7.2-0.8,10c-3.2,2.8-7.3,2.5-10-0.7s-2.4-7.2,0.8-10
		C224.3,166.6,228.3,166.9,231,170.1z M240.5,182.3l33.9,39.3l-9.5,8.2L231,190.5L240.5,182.3z"/>
</g>
<g class="st2">
	<path class="st1" d="M308.8,163c10.9,15.5,6.9,29.5-2.6,36.2c-5.1,3.6-11,4.7-17.7,2.5l14.3,20.3l-10.4,7.3l-40.2-57.1l10.4-7.3
		l4.1,5.8c0.1-6,2.4-12.2,9-16.8C283.9,148.1,298.4,148.2,308.8,163z M277.4,185.9c6.1,8.7,14.3,9.7,19.9,5.8
		c5.3-3.7,7.7-11.8,1.4-20.8c-6.2-8.8-14.7-9.3-19.9-5.6C273.2,169.2,271,176.8,277.4,185.9z"/>
</g>
<g class="st2">
	<path class="st1" d="M364.4,134.1c8.6,16.8,2.6,30.2-7.7,35.4c-5.5,2.8-11.5,3.1-17.9-0.1l11.3,22.1l-11.3,5.8L307,135.1l11.3-5.8
		l3.2,6.3c0.9-5.9,4.1-11.7,11.3-15.3C341.8,115.8,356.2,118,364.4,134.1z M330,152.3c4.8,9.5,12.8,11.7,18.9,8.6
		c5.8-2.9,9.3-10.6,4.4-20.4c-4.9-9.6-13.2-11.3-18.9-8.4C328.2,135.2,325,142.4,330,152.3z"/>
</g>
<g class="st2">
	<path class="st1" d="M382.1,99.4c9.8-3.5,18.7-1.5,25.8,8.9l-10.2,5.5c-2.3-5.8-6.5-6.3-11.7-4.4c-4.1,1.5-6.4,4.3-5.4,7.1
		c0.8,2.2,3.1,3.9,8,3.2l8.8-1.4c8.6-1.4,14.8,2.4,17.4,9.6c3.8,10.6-3.9,19.3-12.9,22.5c-9.5,3.4-21.8,2.2-27.7-9.1l10.2-5.5
		c2.8,6,7.4,6.8,13.5,4.6c4.7-1.7,7.2-4.5,6.1-7.5c-0.9-2.6-3.1-4.1-8.5-3.2l-7.9,1.3c-8.4,1.4-15.2-2.5-17.8-9.6
		C365.8,110.4,374.2,102.3,382.1,99.4z"/>
</g>
<g class="st2">
	<path class="st1" d="M511.9,57.3l8.9,66.9l-12.9,1.7l-5.7-43.1l-13.8,45.2l0.1,0.4l-7,0.9l-25.4-40.1l5.7,42.7l-12.8,1.7l-8.9-66.9
		l13-1.7l29.7,44.4L499,59.1L511.9,57.3z"/>
</g>
<g class="st2">
	<path class="st1" d="M579.8,100.4c-0.5,17-12.5,27-26.5,26.5c-14-0.4-25.3-11.1-24.8-28.1S541,71.9,555,72.3
		C569.1,72.8,580.3,83.4,579.8,100.4z M541.3,99.2c-0.3,10.9,5.3,16.4,12.4,16.6c7,0.2,13-4.9,13.4-15.8
		c0.3-10.9-5.3-16.3-12.4-16.5C547.7,83.3,541.7,88.3,541.3,99.2z"/>
</g>
<g class="st2">
	<path class="st1" d="M610.2,60.5l-4.4,25.6c3.5-4.1,9.7-8,18.4-6.5c9.9,1.7,20.1,12,17.1,29.8c-3.2,18.6-15.9,25.8-27.3,23.8
		c-6.7-1.1-11.6-5.2-14.2-11.5l-1.3,7.5l-12.5-2.1l11.7-68.8L610.2,60.5z M602.9,103.6c-1.8,10.5,3.3,17,10.1,18.1
		c6.3,1.1,13.8-2.9,15.7-13.8c1.8-10.6-3.9-16.9-10.2-18C611.6,88.8,604.7,92.6,602.9,103.6z"/>
</g>
<g class="st2">
	<path class="st1" d="M670.2,91.9l-13.7,50l-12.1-3.3l13.7-50L670.2,91.9z M675.1,77.2c-1.1,4-4.6,6-8.7,4.9c-4.1-1.1-6.1-4.7-5-8.7
		c1.1-4,4.6-6,8.7-4.9S676.2,73.2,675.1,77.2z"/>
</g>
<g class="st2">
	<path class="st1" d="M701.2,83.1l-22.3,66.1l-11.9-4L689.2,79L701.2,83.1z"/>
</g>
<g class="st2">
	<path class="st1" d="M707.1,135c-2.6,7.7-0.5,14.5,7.1,17.9c7.1,3.2,11.3,1.6,14.2-2.5l9.8,6.3c-6.7,10.1-19.4,10.4-28.2,6.5
		c-14-6.2-20.6-20.5-13.6-36.1c6.8-15.2,21.3-20.3,34.8-14.2c12.7,5.7,17.3,19.5,11,33.5l-1.6,3.6L707.1,135z M711.2,126.9l22.1,9.9
		c2.1-7.3-1.3-11.9-6.8-14.4C720.8,119.8,715.5,120.9,711.2,126.9z"/>
</g>
<g class="st2">
	<path class="st1" d="M793.3,129.7c12.6,7.7,16.6,19.7,8.6,32.6c-6.8,11.1-20.9,14.3-32.9,6.9l-8.6-5.3l-11.1,18l-11.1-6.8
		l35.4-57.5L793.3,129.7z M766.7,153.9l8,4.9c6,3.7,11.7,2.5,15.4-3.6c4-6.4,2.5-12.1-3.3-15.7l-8.1-5L766.7,153.9z"/>
</g>
<g class="st2">
	<path class="st1" d="M798.1,181.2c11.5-14,25.9-13.5,34.9-6.1c4.8,3.9,7.4,9.1,7.1,16.2l4.2-5.2l9.8,8l-32.8,40.1l-9.8-8l4.6-5.6
		c-5.9,1.5-12.5,0.9-18.8-4.2C789.5,210.1,786.1,195.9,798.1,181.2z M807.6,189.8c-7,8.6-4.9,16.5,0,20.6c5.4,4.4,13,4.7,20.2-4.1
		c7-8.5,5.6-16.5,0.3-20.8C823.1,181.5,814.7,181.1,807.6,189.8z"/>
</g>
<g class="st2">
	<path class="st1" d="M814.5,250.1l9.4-6.3c0.4,1.9,1.3,4.5,3.9,7.3c5.1,5.4,10.6,2.2,13.6-4.4l21-44.9l9.7,10.3l-17.8,33.4l34-16.1
		l9.6,10.2l-53.6,22c-10.4,4.3-18.1,3.8-25-3.5C816.9,255.4,815.3,252.7,814.5,250.1z"/>
</g>
<g class="st2">
	<path class="st1" d="M421,967.2c-6.2,17.9-19.9,22.8-30.9,19c-5.9-2-10.3-6.1-12.4-12.9l-8.1,23.5l-12-4.1l22.8-66l12,4.1l-2.3,6.7
		c4.9-3.4,11.3-5.1,18.9-2.5C418.6,938.3,426.9,950.2,421,967.2z M384.1,955.1c-3.5,10,0.5,17.3,7,19.5c6.1,2.1,14.1-0.6,17.7-11
		c3.5-10.2-1.1-17.3-7.1-19.4C395.1,942,387.7,944.7,384.1,955.1z"/>
</g>
<g class="st2">
	<path class="st1" d="M428.9,969.6c3.4-17.8,16.4-24.2,27.8-22c6.1,1.2,10.9,4.5,13.9,10.9l1.3-6.5l12.5,2.4l-9.8,50.9L462,1003
		l1.4-7.2c-4.5,4.1-10.6,6.8-18.5,5.2C435,999.1,425.3,988.3,428.9,969.6z M441.3,972.7c-2.1,10.9,3.5,16.9,9.8,18.1
		c6.8,1.3,13.7-2,15.8-13.2c2.1-10.8-2.9-17.2-9.6-18.4C451,957.9,443.4,961.6,441.3,972.7z"/>
</g>
<g class="st2">
	<path class="st1" d="M505.7,982.6l-1.9,25.3l-12.7-0.9l3.9-51.7l12.7,0.9l-0.8,10.9c4.8-9.6,11.1-11.6,16-11.3
		c1.3,0.1,2.8,0.5,3.9,1l-1.9,14.5c-1.9-0.9-4-1.5-5.8-1.6C513,969.3,506.5,971.5,505.7,982.6z"/>
</g>
<g class="st2">
	<path class="st1" d="M548.9,943l0.2,14.3l12.8-0.2l0.2,10.5l-12.8,0.2l0.4,25.1c0.1,3.7,1.3,5.6,5.1,5.5c2.3,0,4.5-0.4,6.9-1l2,9.8
		c-3,1.4-7.9,2.7-12.4,2.8c-10.7,0.2-14.1-5.9-14.3-13.6l-0.5-28.3l-8.9,0.1l-0.2-10.5l8.9-0.1l-0.2-12.5L548.9,943z"/>
</g>
<g class="st2">
	<path class="st1" d="M584.7,977.5l3.7,29.4l-12.6,1.6l-6.4-51.4l12.6-1.6l0.9,7.6c2.8-7,9.1-10.3,14.8-11c8.9-1.1,18,2.4,19.7,16.2
		l4.3,34.5l-12.6,1.6l-3.7-29.7c-1.1-8.6-5.7-11.2-11.2-10.5C587.8,965,583.7,969.3,584.7,977.5z"/>
</g>
<g class="st2">
	<path class="st1" d="M641.7,974.6c2.8,7.6,8.7,11.6,16.7,9.5c7.6-2,9.8-5.8,9.5-10.9l11.6-1.2c1.1,12.1-8.6,20.3-17.8,22.7
		c-14.8,3.9-28.9-3.1-33.3-19.6c-4.2-16.1,3.9-29.1,18.2-32.9c13.4-3.5,25.7,4.4,29.6,19.2l1,3.8L641.7,974.6z M639.8,965.7
		l23.4-6.2c-2.9-7-8.5-8.5-14.3-6.9C642.9,954.2,639.4,958.3,639.8,965.7z"/>
</g>
<g class="st2">
	<path class="st1" d="M699.1,954.5l9.1,23.7l-11.8,4.6l-18.7-48.4l11.8-4.6l4,10.2c0.2-10.7,5-15.2,9.6-17c1.3-0.5,2.7-0.8,4-0.8
		l4.5,13.9c-2.1,0-4.3,0.4-6,1C700,939.4,695.1,944.2,699.1,954.5z"/>
</g>
<path class="st0" d="M448.3,445.9h235.1v266.8H448.3V445.9z"/>
<path class="st3" d="M884.6,445.9H604.7c-0.7-23.3,1-46.6,5-69.6c0.8-3.6,1.1-7.2,1.1-10.7c0-23.5-16.4-44.7-40.3-49.8
	c-27.5-5.9-54.6,11.7-60.5,39.2c-5,26.6-7.6,53.6-7.6,80.6c0,3.4,0,6.8,0.1,10.2H407c-24.6,0-44.5,19.9-44.5,44.5
	s19.9,44.5,44.5,44.5c-24.6,0-44.5,19.9-44.5,44.5s19.9,44.5,44.5,44.5c-24.6,0-44.5,19.9-44.5,44.5s19.9,44.5,44.5,44.5h80.9
	c24.6,0,44.5-19.9,44.5-44.5s-19.9-44.5-44.5-44.5c20.9,0,39-14.5,43.4-35c19.4,45.8,50.9,85.5,91.2,114.7
	c10.7,7.8,24.1,11.2,37.3,9.2l192.9-0.1C881,661.5,897,602.6,897,540C897,507.4,892.7,475.9,884.6,445.9L884.6,445.9z M516.1,545
	C516.1,545,516.1,544.9,516.1,545c-7.9-6.5-17.9-10.1-28.1-10.1c8.5,0,16.8-2.5,23.9-7C513.2,533.5,514.5,539.2,516.1,545L516.1,545
	L516.1,545z"/>
</svg>
