<?xml version="1.0" encoding="utf-8"?>
<!-- Generator: Adobe Illustrator 27.7.0, SVG Export Plug-In . SVG Version: 6.00 Build 0)  -->
<svg version="1.1" id="_Layer_" xmlns="http://www.w3.org/2000/svg" xmlns:xlink="http://www.w3.org/1999/xlink" x="0px" y="0px"
	 viewBox="0 0 1179.4 175.5" style="enable-background:new 0 0 1179.4 175.5;" xml:space="preserve">
<style type="text/css">
	.st0{fill:#5A78FF;}
	.st1{enable-background:new    ;}
	.st2{fill:#FFFFFF;}
	.st3{fill-rule:evenodd;clip-rule:evenodd;fill:#FF7438;}
	.st4{fill-rule:evenodd;clip-rule:evenodd;fill:#FF985F;}
</style>
<g>
	<g>
		<path class="st0" d="M140.3,22.1c-4.1-4.1-1.2-11.1,4.6-11.1h108.4c3.6,0,6.5,2.9,6.5,6.5v108.4c0,5.8-7,8.7-11.2,4.6L140.3,22.1z
			"/>
		<path class="st0" d="M205.9,11h767.5c42.4,0,76.8,34.4,76.8,76.8v0c0,42.4-34.4,76.8-76.8,76.8H205.9c-42.4,0-76.8-34.4-76.8-76.8
			v0C129.2,45.3,163.5,11,205.9,11z"/>
	</g>
	<g class="st1">
		<path class="st2" d="M313.5,88.7c0,17.9-10.7,26.6-21.7,26.6c-5.9,0-11.1-2.3-15.1-7.8V131h-12V64.9h12v6.7
			c3.3-4.6,8.5-8.1,16.1-8.1C302.3,63.5,313.5,71.5,313.5,88.7z M276.6,89.3c0,10.1,5.8,15.3,12.3,15.3c6.1,0,12.4-4.9,12.4-15.3
			c0-10.2-6.3-15.2-12.4-15.2C282.4,74.1,276.6,78.8,276.6,89.3z"/>
		<path class="st2" d="M319.6,88.9c0-17.1,10.9-25.4,21.9-25.4c5.9,0,10.9,2.2,14.9,7.7v-6.3h12V114h-12v-6.9
			c-3.4,4.6-8.6,8.2-16.3,8.2C330.6,115.3,319.6,106.9,319.6,88.9z M331.7,89.5c0,10.5,6.3,15.1,12.4,15.1c6.6,0,12.4-4.3,12.4-15.1
			c0-10.4-5.8-15.4-12.3-15.4C338.1,74.1,331.7,78.9,331.7,89.5z"/>
		<path class="st2" d="M392,90v24h-12V64.9h12v10.4c3.8-9.4,9.6-11.8,14.3-11.8c1.3,0,2.6,0.3,3.8,0.7L409.3,78
			c-1.9-0.7-3.9-1.1-5.6-1.1C398,76.9,392,79.5,392,90z"/>
		<path class="st2" d="M432.7,51.3v13.6h12.1v10h-12.1v23.8c0,3.5,1.1,5.3,4.8,5.3c2.2,0,4.3-0.3,6.6-0.9l1.7,9.3
			c-2.9,1.3-7.5,2.5-11.8,2.5c-10.1,0-13.3-5.8-13.3-13.1V74.9h-8.4v-10h8.4V53L432.7,51.3z"/>
		<path class="st2" d="M465.3,85.9v28h-12V64.9h12v7.2c3.4-6.2,9.7-8.6,15.2-8.6c8.5,0,16.6,4.3,16.6,17.6V114h-12V85.7
			c0-8.2-4-11.2-9.3-11.2C469.7,74.5,465.3,78.1,465.3,85.9z"/>
		<path class="st2" d="M517.4,92c0.8,7.7,5.2,12.7,13,12.7c7.4,0,10.4-3,11.3-7.7l10.9,1.7c-1.9,11.3-12.8,16.5-21.8,16.5
			c-14.5,0-25.7-9.8-25.7-26c0-15.8,10.6-25.7,24.5-25.7c13.1,0,22.5,10.2,22.5,24.7V92H517.4z M517.8,83.4h22.9
			c-1-7.1-5.7-9.8-11.4-9.8C523.4,73.6,519.2,76.6,517.8,83.4z"/>
		<path class="st2" d="M573.5,90v24h-12V64.9h12v10.4c3.8-9.4,9.6-11.8,14.3-11.8c1.3,0,2.6,0.3,3.8,0.7L590.8,78
			c-1.9-0.7-3.9-1.1-5.6-1.1C579.5,76.9,573.5,79.5,573.5,90z"/>
		<path class="st2" d="M670.2,88.7c0,17.9-10.7,26.6-21.7,26.6c-5.9,0-11.1-2.3-15.1-7.8V131h-12V64.9h12v6.7
			c3.3-4.6,8.5-8.1,16.1-8.1C659.1,63.5,670.2,71.5,670.2,88.7z M633.4,89.3c0,10.1,5.8,15.3,12.3,15.3c6.1,0,12.4-4.9,12.4-15.3
			c0-10.2-6.3-15.2-12.4-15.2C639.2,74.1,633.4,78.8,633.4,89.3z"/>
		<path class="st2" d="M691,47.9V114h-11.9V47.9H691z"/>
		<path class="st2" d="M733.7,114v-7.5c-3.4,5.9-10.1,8.8-15.8,8.8c-8.2,0-16-4.2-16-15.5V64.8h12v29.6c0,7.7,3.8,10.4,9,10.4
			c6.1,0,10.7-3.6,10.7-11.3V64.8h12V114H733.7z"/>
		<path class="st2" d="M773.7,63.5c9.9,0,17.1,4.6,20.1,16.2L783,81.4c-0.2-5.9-3.8-7.7-9-7.7c-4.1,0-7.1,1.8-7.1,4.6
			c0,2.2,1.5,4.5,6.1,5.4l8.3,1.5c8.1,1.5,12.4,6.8,12.4,14.1c0,10.7-9.6,15.9-18.7,15.9c-9.5,0-20.1-4.9-21.8-17l10.8-1.7
			c0.6,6.2,4.4,8.4,10.6,8.4c4.7,0,7.8-1.7,7.8-4.7c0-2.6-1.4-4.6-6.6-5.5l-7.5-1.4c-7.9-1.4-12.8-7.1-12.8-14.2
			C755.6,68.1,765.7,63.5,773.7,63.5z"/>
	</g>
	<g>
		<circle class="st2" cx="971.7" cy="87.7" r="70"/>
		<path class="st3" d="M1033.7,74.7c-2.9-5-9.3-6.7-14.3-3.8l-46.8,27c-4.9,3-6.5,9.4-3.5,14.4c2.9,4.8,9,6.4,13.9,3.7l46.8-27
			C1034.9,86.1,1036.6,79.7,1033.7,74.7L1033.7,74.7z"/>
		<path class="st4" d="M1017.3,66.9L991.3,104c-1.6,4.5-4.2,8.7-7.5,12.2v40.5c-3.9,0.7-8,1.1-12.1,1.1c-10.3,0-20-2.2-28.8-6.2
			v-28.2c-8.4-4.2-14.8-11.6-17.6-20.6c-1.6-5.5,1.5-11.3,7.1-13c5.4-1.6,11,1.3,12.8,6.6c2.3,7.4,10.2,11.5,17.6,9.1
			c4.1-1.3,7.3-4.4,8.9-8.4c0.1-0.5,0.3-1.1,0.5-1.6c1.9-7.5-2.7-15.1-10.2-17c-4.7-1.2-9.6,0.1-13.1,3.4c-4.2,4-10.8,3.8-14.8-0.4
			c-4-4.2-3.8-10.8,0.4-14.8c6.8-6.4,15.4-9.6,24-9.6c9.2,0,18.5,3.7,25.4,10.9c1.4,1.5,2.7,3.1,3.8,4.8l12.6-17.9
			c3.3-4.7,9.8-5.9,14.6-2.6S1020.6,62.1,1017.3,66.9L1017.3,66.9z"/>
	</g>
</g>
</svg>
