<?xml version="1.0" encoding="utf-8"?>
<!-- Generator: Adobe Illustrator 27.7.0, SVG Export Plug-In . SVG Version: 6.00 Build 0)  -->
<svg version="1.1" id="Layer_1" xmlns="http://www.w3.org/2000/svg" xmlns:xlink="http://www.w3.org/1999/xlink" x="0px" y="0px"
	 viewBox="0 0 1080 1080" style="enable-background:new 0 0 1080 1080;" xml:space="preserve">
<style type="text/css">
	.st0{fill:#5A78FF;}
	.st1{fill:#FFFFFF;}
	.st2{enable-background:new    ;}
	.st3{fill-rule:evenodd;clip-rule:evenodd;fill:#FF7438;}
	.st4{fill-rule:evenodd;clip-rule:evenodd;fill:#FF985F;}
</style>
<g id="Visueller">
	<g>
		<circle class="st0" cx="540" cy="540" r="527.8"/>
	</g>
	<g>
		<circle class="st1" cx="540" cy="540" r="357.5"/>
	</g>
	<g class="st2">
		<path class="st1" d="M234.4,259.8l-66.1-28.2l9.8-10.3l48.3,22.8l-25.6-46.9l9.8-10.3l32.1,64.4L234.4,259.8z"/>
	</g>
	<g class="st2">
		<path class="st1" d="M231,170.1c2.7,3.1,2.4,7.2-0.8,10c-3.2,2.8-7.3,2.5-10-0.7s-2.4-7.2,0.8-10
			C224.3,166.6,228.3,166.9,231,170.1z M240.5,182.3l33.9,39.3l-9.5,8.2L231,190.5L240.5,182.3z"/>
	</g>
	<g class="st2">
		<path class="st1" d="M308.8,163c10.9,15.5,6.9,29.5-2.6,36.2c-5.1,3.6-11,4.7-17.7,2.5l14.3,20.3l-10.4,7.3l-40.2-57.1l10.4-7.3
			l4.1,5.8c0.1-6,2.4-12.2,9-16.8C283.9,148.1,298.4,148.2,308.8,163z M277.4,185.9c6.1,8.7,14.3,9.7,19.9,5.8
			c5.3-3.7,7.7-11.8,1.4-20.8c-6.2-8.8-14.7-9.3-19.9-5.6C273.2,169.2,271,176.8,277.4,185.9z"/>
	</g>
	<g class="st2">
		<path class="st1" d="M364.4,134.1c8.6,16.8,2.6,30.2-7.7,35.4c-5.5,2.8-11.5,3.1-17.9-0.1l11.3,22.1l-11.3,5.8L307,135.1l11.3-5.8
			l3.2,6.3c0.9-5.9,4.1-11.7,11.3-15.3C341.8,115.8,356.2,118,364.4,134.1z M330,152.3c4.8,9.5,12.8,11.7,18.9,8.6
			c5.8-2.9,9.3-10.6,4.4-20.4c-4.9-9.6-13.2-11.3-18.9-8.4C328.2,135.2,325,142.4,330,152.3z"/>
	</g>
	<g class="st2">
		<path class="st1" d="M382.1,99.4c9.8-3.5,18.7-1.5,25.8,8.9l-10.2,5.5c-2.3-5.8-6.5-6.3-11.7-4.4c-4.1,1.5-6.4,4.3-5.4,7.1
			c0.8,2.2,3.1,3.9,8,3.2l8.8-1.4c8.6-1.4,14.8,2.4,17.4,9.6c3.8,10.6-3.9,19.3-12.9,22.5c-9.5,3.4-21.8,2.2-27.7-9.1l10.2-5.5
			c2.8,6,7.4,6.8,13.5,4.6c4.7-1.7,7.2-4.5,6.1-7.5c-0.9-2.6-3.1-4.1-8.5-3.2l-7.9,1.3c-8.4,1.4-15.2-2.5-17.8-9.6
			C365.8,110.4,374.2,102.3,382.1,99.4z"/>
	</g>
	<g class="st2">
		<path class="st1" d="M511.9,57.3l8.9,66.9l-12.9,1.7l-5.7-43.1l-13.8,45.2l0.1,0.4l-7,0.9l-25.4-40.1l5.7,42.7l-12.8,1.7
			l-8.9-66.9l13-1.7l29.7,44.4L499,59.1L511.9,57.3z"/>
	</g>
	<g class="st2">
		<path class="st1" d="M579.8,100.4c-0.5,17-12.5,27-26.5,26.5c-14-0.4-25.3-11.1-24.8-28.1S541,71.9,555,72.3
			C569.1,72.8,580.3,83.4,579.8,100.4z M541.3,99.2c-0.3,10.9,5.3,16.4,12.4,16.6c7,0.2,13-4.9,13.4-15.8
			c0.3-10.9-5.3-16.3-12.4-16.5C547.7,83.3,541.7,88.3,541.3,99.2z"/>
	</g>
	<g class="st2">
		<path class="st1" d="M610.2,60.5l-4.4,25.6c3.5-4.1,9.7-8,18.4-6.5c9.9,1.7,20.1,12,17.1,29.8c-3.2,18.6-15.9,25.8-27.3,23.8
			c-6.7-1.1-11.6-5.2-14.2-11.5l-1.3,7.5l-12.5-2.1l11.7-68.8L610.2,60.5z M602.9,103.6c-1.8,10.5,3.3,17,10.1,18.1
			c6.3,1.1,13.8-2.9,15.7-13.8c1.8-10.6-3.9-16.9-10.2-18C611.6,88.8,604.7,92.6,602.9,103.6z"/>
	</g>
	<g class="st2">
		<path class="st1" d="M670.2,91.9l-13.7,50l-12.1-3.3l13.7-50L670.2,91.9z M675.1,77.2c-1.1,4-4.6,6-8.7,4.9
			c-4.1-1.1-6.1-4.7-5-8.7c1.1-4,4.6-6,8.7-4.9S676.2,73.2,675.1,77.2z"/>
	</g>
	<g class="st2">
		<path class="st1" d="M701.2,83.1l-22.3,66.1l-11.9-4L689.2,79L701.2,83.1z"/>
	</g>
	<g class="st2">
		<path class="st1" d="M707.1,135c-2.6,7.7-0.5,14.5,7.1,17.9c7.1,3.2,11.3,1.6,14.2-2.5l9.8,6.3c-6.7,10.1-19.4,10.4-28.2,6.5
			c-14-6.2-20.6-20.5-13.6-36.1c6.8-15.2,21.3-20.3,34.8-14.2c12.7,5.7,17.3,19.5,11,33.5l-1.6,3.6L707.1,135z M711.2,126.9
			l22.1,9.9c2.1-7.3-1.3-11.9-6.8-14.4C720.8,119.8,715.5,120.9,711.2,126.9z"/>
	</g>
	<g class="st2">
		<path class="st1" d="M793.3,129.7c12.6,7.7,16.6,19.7,8.6,32.6c-6.8,11.1-20.9,14.3-32.9,6.9l-8.6-5.3l-11.1,18l-11.1-6.8
			l35.4-57.5L793.3,129.7z M766.7,153.9l8,4.9c6,3.7,11.7,2.5,15.4-3.6c4-6.4,2.5-12.1-3.3-15.7l-8.1-5L766.7,153.9z"/>
	</g>
	<g class="st2">
		<path class="st1" d="M798.1,181.2c11.5-14,25.9-13.5,34.9-6.1c4.8,3.9,7.4,9.1,7.1,16.2l4.2-5.2l9.8,8l-32.8,40.1l-9.8-8l4.6-5.6
			c-5.9,1.5-12.5,0.9-18.8-4.2C789.5,210.1,786.1,195.9,798.1,181.2z M807.6,189.8c-7,8.6-4.9,16.5,0,20.6c5.4,4.4,13,4.7,20.2-4.1
			c7-8.5,5.6-16.5,0.3-20.8C823.1,181.5,814.7,181.1,807.6,189.8z"/>
	</g>
	<g class="st2">
		<path class="st1" d="M814.5,250.1l9.4-6.3c0.4,1.9,1.3,4.5,3.9,7.3c5.1,5.4,10.6,2.2,13.6-4.4l21-44.9l9.7,10.3l-17.8,33.4
			l34-16.1l9.6,10.2l-53.6,22c-10.4,4.3-18.1,3.8-25-3.5C816.9,255.4,815.3,252.7,814.5,250.1z"/>
	</g>
	<g class="st2">
		<path class="st1" d="M319.3,924.6c-10.4,15.8-24.9,17.2-34.6,10.8c-5.2-3.4-8.4-8.5-8.8-15.6l-13.7,20.7l-10.6-7l38.5-58.3l10.6,7
			l-3.9,5.9c5.6-2.1,12.2-2.2,18.9,2.2C324.1,896,329.3,909.5,319.3,924.6z M286.5,903.7c-5.8,8.9-3.8,16.9,1.9,20.7
			c5.4,3.6,13.8,2.9,19.9-6.3c5.9-9,3.3-17-2.1-20.6C300.4,893.7,292.6,894.5,286.5,903.7z"/>
	</g>
	<g class="st2">
		<path class="st1" d="M326.3,928.9c7.7-16.4,21.9-19.3,32.4-14.4c5.6,2.7,9.4,7,10.8,14.1l2.8-6l11.5,5.4l-22.2,46.9l-11.5-5.4
			l3.1-6.6c-5.3,2.9-11.9,3.9-19.2,0.5C324.9,959,318.2,946,326.3,928.9z M337.6,934.9c-4.7,10-0.8,17.2,5,20
			c6.3,3,13.8,1.4,18.6-8.8c4.7-9.9,1.4-17.3-4.7-20.3C350.6,923.1,342.4,924.7,337.6,934.9z"/>
	</g>
	<g class="st2">
		<path class="st1" d="M397.5,960.5l-8.1,24l-12-4.1l16.6-49.1l12,4.1l-3.5,10.4c7-8.1,13.6-8.5,18.3-6.9c1.3,0.4,2.6,1.1,3.5,1.9
			l-5.4,13.6c-1.6-1.3-3.5-2.4-5.3-3C407.8,949.5,401,950,397.5,960.5z"/>
	</g>
	<g class="st2">
		<path class="st1" d="M449.3,932.9l-3.3,13.9l12.4,3L456,960l-12.4-3l-5.8,24.4c-0.9,3.6-0.2,5.7,3.6,6.6c2.3,0.5,4.5,0.7,6.9,0.7
			l-0.5,10c-3.3,0.6-8.3,0.7-12.7-0.3c-10.4-2.5-12.2-9.2-10.4-16.7l6.6-27.6l-8.7-2.1l2.4-10.2l8.7,2.1l2.9-12.2L449.3,932.9z"/>
	</g>
	<g class="st2">
		<path class="st1" d="M475.5,975.1l-3.6,29.4l-12.6-1.6l6.3-51.4l12.6,1.6l-0.9,7.6c4.4-6.1,11.3-7.8,17-7.1
			c8.9,1.1,16.9,6.7,15.2,20.5l-4.2,34.5l-12.6-1.6l3.7-29.7c1.1-8.6-2.8-12.2-8.3-12.9C481.6,963.7,476.5,966.9,475.5,975.1z"/>
	</g>
	<g class="st2">
		<path class="st1" d="M531.2,986.2c0.9,8.1,5.7,13.3,14,13.2c7.8-0.1,10.9-3.3,11.8-8.3l11.5,1.6c-1.8,12-13.2,17.7-22.8,17.8
			c-15.3,0.2-27.3-9.9-27.6-27c-0.3-16.6,10.7-27.4,25.5-27.6c13.9-0.2,23.9,10.4,24.2,25.7l0.1,4L531.2,986.2z M531.4,977.1
			l24.2-0.4c-1.2-7.5-6.2-10.3-12.2-10.2C537.2,966.7,532.8,969.9,531.4,977.1z"/>
	</g>
	<g class="st2">
		<path class="st1" d="M591.8,980.9l3,25.2l-12.6,1.5l-6.1-51.5l12.6-1.5l1.3,10.9c2.9-10.3,8.6-13.5,13.6-14.1
			c1.3-0.2,2.8-0.1,4,0.3l0.9,14.6c-2.1-0.5-4.2-0.7-6-0.5C596.5,966.5,590.5,969.9,591.8,980.9z"/>
	</g>
	<g class="st2">
		<path class="st1" d="M693,956.3c5.4,18.1-2.8,30.1-14,33.5c-6,1.8-11.9,1-17.6-3.3l7.1,23.8l-12.2,3.6l-20-66.9l12.2-3.6l2,6.8
			c2-5.7,6.2-10.8,13.9-13.1C674.1,934.2,687.8,939,693,956.3z M655.9,968c3,10.2,10.5,13.8,17.1,11.8c6.2-1.9,11.1-8.8,8-19.3
			c-3.1-10.3-11-13.4-17.1-11.6C657.2,950.9,652.7,957.4,655.9,968z"/>
	</g>
	<g class="st2">
		<path class="st1" d="M697.8,907.2l26.5,64.5l-11.7,4.8L686.2,912L697.8,907.2z"/>
	</g>
	<g class="st2">
		<path class="st1" d="M768.1,950.3l-3.7-7c-0.3,7.2-5.1,13.2-10.4,16c-7.6,4-17,4-22.6-6.6l-17.2-32.6l11.2-5.9l14.6,27.6
			c3.8,7.2,8.7,7.8,13.6,5.2c5.7-3,8.3-8.6,4.4-15.9l-14.1-26.7l11.2-5.9l24.3,45.9L768.1,950.3z"/>
	</g>
	<g class="st2">
		<path class="st1" d="M777.4,881.7c8.6-6,17.6-6.4,27.2,1.9l-8.3,8c-3.7-5-8-4.3-12.5-1.2c-3.5,2.5-5,5.8-3.4,8.3
			c1.3,1.9,4.1,3,8.6,0.9l8.1-3.7c7.9-3.6,14.9-1.6,19.3,4.7c6.4,9.2,1.3,19.6-6.6,25.1c-8.3,5.8-20.4,7.9-29.1-1.5l8.3-8
			c4.3,5,8.9,4.6,14.2,0.9c4.1-2.8,5.8-6.2,4-8.8c-1.6-2.3-4-3.1-9-0.8l-7.3,3.3c-7.7,3.5-15.3,1.6-19.7-4.6
			C764.5,896.6,770.4,886.5,777.4,881.7z"/>
	</g>
</g>
<g id="Layer_5">
	<path class="st3" d="M856.6,473.6c-14.8-25.5-47.4-34.2-73-19.5L544.5,592.2c-25.2,15.3-33.2,48.2-17.8,73.4
		c14.8,24.3,46.2,32.7,71.2,19.1L837,546.6C862.5,531.7,871.2,499.2,856.6,473.6L856.6,473.6z"/>
	<path class="st4" d="M772.7,433.5L640.2,622.9c-8.4,23.2-21.5,44.4-38.5,62.3V892c-20.1,3.5-40.9,5.4-62,5.4
		c-52.5,0-102.4-11.3-147.3-31.7V721.5c-42.9-21.5-75.3-59.4-90-105.1c-8.3-28.3,7.8-58,36.1-66.3c27.4-8.1,56.3,6.8,65.6,33.8
		c12,37.7,52.3,58.5,90,46.5c20.8-6.7,37.5-22.5,45.3-42.9c0.6-2.8,1.5-5.5,2.5-8.1c9.6-38.4-13.7-77.3-52.1-86.9
		c-23.8-6-49,0.7-66.8,17.6c-21.4,20.3-55.2,19.4-75.5-2c-20.3-21.4-19.4-55.2,2-75.5c34.5-32.7,78.6-48.9,122.7-48.9
		c47.3,0,94.4,18.7,129.5,55.7c7.1,7.5,13.6,15.6,19.3,24.3l64.1-91.5c17-24.2,50.3-30,74.4-13.1C783.8,376,789.6,409.4,772.7,433.5
		z"/>
</g>
</svg>
