<?xml version="1.0" encoding="utf-8"?>
<!-- Generator: Adobe Illustrator 27.7.0, SVG Export Plug-In . SVG Version: 6.00 Build 0)  -->
<svg version="1.1" id="_Layer_" xmlns="http://www.w3.org/2000/svg" xmlns:xlink="http://www.w3.org/1999/xlink" x="0px" y="0px"
	 viewBox="0 0 1179.4 175.5" style="enable-background:new 0 0 1179.4 175.5;" xml:space="preserve">
<style type="text/css">
	.st0{enable-background:new    ;}
	.st1{fill:#FFFFFF;}
	.st2{fill:#524E69;}
	.st3{fill-rule:evenodd;clip-rule:evenodd;fill:#792716;}
	.st4{fill-rule:evenodd;clip-rule:evenodd;}
	.st5{fill-rule:evenodd;clip-rule:evenodd;fill:#F9B691;}
</style>
<g>
	<g>
		<path d="M31.4,22.1C27.3,18,30.2,11,36,11h108.4c3.6,0,6.5,2.9,6.5,6.5v108.4c0,5.8-7,8.7-11.2,4.6L31.4,22.1z"/>
		<path d="M97,11h985.3c42.4,0,76.8,34.4,76.8,76.8v0c0,42.4-34.4,76.8-76.8,76.8H97c-42.4,0-76.8-34.4-76.8-76.8v0
			C20.3,45.3,54.6,11,97,11z"/>
	</g>
	<g class="st0">
		<path class="st1" d="M204.6,88.7c0,17.9-10.7,26.6-21.7,26.6c-5.9,0-11.1-2.3-15.1-7.8V131h-12V64.9h12v6.7
			c3.3-4.6,8.5-8.1,16.1-8.1C193.4,63.5,204.6,71.5,204.6,88.7z M167.7,89.3c0,10.1,5.8,15.3,12.3,15.3c6.1,0,12.4-4.9,12.4-15.3
			c0-10.2-6.3-15.2-12.4-15.2C173.5,74.1,167.7,78.8,167.7,89.3z"/>
		<path class="st1" d="M210.7,88.9c0-17.1,10.9-25.4,21.9-25.4c5.9,0,10.9,2.2,14.9,7.7v-6.3h12V114h-12v-6.9
			c-3.4,4.6-8.6,8.2-16.3,8.2C221.7,115.3,210.7,106.9,210.7,88.9z M222.8,89.5c0,10.5,6.3,15.1,12.4,15.1c6.6,0,12.4-4.3,12.4-15.1
			c0-10.4-5.8-15.4-12.3-15.4C229.2,74.1,222.8,78.9,222.8,89.5z"/>
		<path class="st1" d="M283.1,90v24h-12V64.9h12v10.4c3.8-9.4,9.6-11.8,14.3-11.8c1.3,0,2.6,0.3,3.8,0.7L300.4,78
			c-1.9-0.7-3.9-1.1-5.6-1.1C289.1,76.9,283.1,79.5,283.1,90z"/>
		<path class="st1" d="M323.8,51.3v13.6h12.1v10h-12.1v23.8c0,3.5,1.1,5.3,4.8,5.3c2.2,0,4.3-0.3,6.6-0.9l1.7,9.3
			c-2.9,1.3-7.5,2.5-11.8,2.5c-10.1,0-13.3-5.8-13.3-13.1V74.9h-8.4v-10h8.4V53L323.8,51.3z"/>
		<path class="st1" d="M356.4,85.9v28h-12V64.9h12v7.2c3.4-6.2,9.7-8.6,15.2-8.6c8.5,0,16.6,4.3,16.6,17.6V114h-12V85.7
			c0-8.2-4-11.2-9.3-11.2C360.8,74.5,356.4,78.1,356.4,85.9z"/>
		<path class="st1" d="M408.5,92c0.8,7.7,5.2,12.7,13,12.7c7.4,0,10.4-3,11.3-7.7l10.9,1.7c-1.9,11.3-12.8,16.5-21.8,16.5
			c-14.5,0-25.7-9.8-25.7-26c0-15.8,10.6-25.7,24.5-25.7c13.1,0,22.5,10.2,22.5,24.7V92H408.5z M408.9,83.4h22.9
			c-1-7.1-5.7-9.8-11.4-9.8C414.5,73.6,410.3,76.6,408.9,83.4z"/>
		<path class="st1" d="M464.6,90v24h-12V64.9h12v10.4c3.8-9.4,9.6-11.8,14.3-11.8c1.3,0,2.6,0.3,3.8,0.7L481.9,78
			c-1.9-0.7-3.9-1.1-5.6-1.1C470.6,76.9,464.6,79.5,464.6,90z"/>
		<path class="st1" d="M561.3,88.7c0,17.9-10.7,26.6-21.7,26.6c-5.9,0-11.1-2.3-15.1-7.8V131h-12V64.9h12v6.7
			c3.3-4.6,8.5-8.1,16.1-8.1C550.2,63.5,561.3,71.5,561.3,88.7z M524.5,89.3c0,10.1,5.8,15.3,12.3,15.3c6.1,0,12.4-4.9,12.4-15.3
			c0-10.2-6.3-15.2-12.4-15.2C530.3,74.1,524.5,78.8,524.5,89.3z"/>
		<path class="st1" d="M582.2,90v24h-12V64.9h12v10.4c3.8-9.4,9.6-11.8,14.3-11.8c1.3,0,2.6,0.3,3.8,0.7L599.5,78
			c-1.9-0.7-3.9-1.1-5.6-1.1C588.2,76.9,582.2,79.5,582.2,90z"/>
		<path class="st1" d="M616.3,92c0.8,7.7,5.2,12.7,13,12.7c7.4,0,10.4-3,11.3-7.7l10.9,1.7c-1.9,11.3-12.8,16.5-21.8,16.5
			c-14.5,0-25.7-9.8-25.7-26c0-15.8,10.6-25.7,24.5-25.7c13.1,0,22.5,10.2,22.5,24.7V92H616.3z M616.6,83.4h22.9
			c-1-7.1-5.7-9.8-11.4-9.8C622.3,73.6,618.1,76.6,616.6,83.4z"/>
		<path class="st1" d="M704.2,85.9v28h-12V85.7c0-8.2-4-11.2-9.3-11.2c-6.1,0-10.5,3.6-10.5,11.4v28h-12V64.9h12v7.2
			c3.4-6.2,9.7-8.6,15.2-8.6c6.5,0,12.7,2.6,15.3,9.5c3.7-7.3,10.6-9.5,16.5-9.5c8.5,0,16.6,4.3,16.6,17.6V114h-12V85.7
			c0-8.2-4-11.2-9.3-11.2C708.6,74.5,704.2,78.1,704.2,85.9z"/>
		<path class="st1" d="M759.8,50.2c0,3.9-2.7,6.6-6.7,6.6s-6.7-2.7-6.7-6.6s2.7-6.6,6.7-6.6S759.8,46.3,759.8,50.2z M759.1,64.9V114
			h-11.9V64.9H759.1z"/>
		<path class="st1" d="M801.8,114v-7.5c-3.4,5.9-10.1,8.8-15.8,8.8c-8.2,0-16-4.2-16-15.5V64.8h12v29.6c0,7.7,3.8,10.4,9,10.4
			c6.1,0,10.7-3.6,10.7-11.3V64.8h12V114H801.8z"/>
		<path class="st1" d="M869,85.9v28h-12V85.7c0-8.2-4-11.2-9.3-11.2c-6.1,0-10.5,3.6-10.5,11.4v28h-12V64.9h12v7.2
			c3.4-6.2,9.7-8.6,15.2-8.6c6.5,0,12.7,2.6,15.3,9.5c3.7-7.3,10.6-9.5,16.5-9.5c8.5,0,16.6,4.3,16.6,17.6V114h-12V85.7
			c0-8.2-4-11.2-9.3-11.2C873.4,74.5,869,78.1,869,85.9z"/>
	</g>
	<g>
		<circle class="st2" cx="1080.6" cy="87.7" r="70"/>
		<path class="st3" d="M1144,117.4c-7.8,16.7-22.1,29.8-39.6,36.2l-23.6-23.6l-29.1-29.1l-5.8-5.8l37.9-37.9l6.3,6.3l0,0l28.5,28.5
			L1144,117.4L1144,117.4z"/>
		<path class="st4" d="M1144,117.4c-7.8,16.7-22.1,29.8-39.6,36.2l-23.6-23.6l-29.1-29.1l-5.8-5.8l37.9-37.9l6.3,6.3l0,0l28.5,28.5
			L1144,117.4L1144,117.4z"/>
		<path class="st5" d="M1122.3,88.4l-3.6,3.6l-3,3l0.1,0.1l-34.9,34.9l-23.7,23.7c-17.6-6.2-31.9-19.3-39.8-36l25.5-25.5l29.3-29.3
			c0.2-0.3,0.5-0.6,0.7-0.9l8-8l3.5-3.5c3.5-3.5,9.1-3.5,12.6,0s3.5,9.1,0,12.6c3.5-3.5,9.2-3.5,12.6,0c3.5,3.5,3.5,9.2,0,12.6
			c1.7-1.7,4-2.6,6.3-2.6s4.6,0.9,6.3,2.6C1125.8,79.3,1125.8,84.9,1122.3,88.4L1122.3,88.4z"/>
		<path class="st3" d="M1088.9,74.8c3.6-3.6,3.6-9.3,0-12.9l0,0l-11.5-11.5c-3.6-3.5-9.3-3.5-12.9,0c-3.1,3.1-3.5,7.9-1.1,11.5
			c-4.1-2.8-9.8-1.8-12.6,2.4c-2.1,3.1-2.1,7.2,0,10.3c-4.2-2.8-9.8-1.7-12.6,2.4c-2.4,3.6-2,8.4,1.1,11.5l11.5,11.5
			c3.5,3.6,9.3,3.6,12.9,0c3.1-3.1,3.6-7.9,1.1-11.6c4.2,2.8,9.8,1.8,12.6-2.4c2.1-3.1,2.1-7.1,0-10.2
			C1080.9,78.3,1085.8,77.9,1088.9,74.8L1088.9,74.8z"/>
		<path class="st4" d="M1088.9,74.8c3.6-3.6,3.6-9.3,0-12.9l0,0l-11.5-11.5c-3.6-3.5-9.3-3.5-12.9,0c-3.1,3.1-3.5,7.9-1.1,11.5
			c-4.1-2.8-9.8-1.8-12.6,2.4c-2.1,3.1-2.1,7.2,0,10.3c-4.2-2.8-9.8-1.7-12.6,2.4c-2.4,3.6-2,8.4,1.1,11.5l11.5,11.5
			c3.5,3.6,9.3,3.6,12.9,0c3.1-3.1,3.6-7.9,1.1-11.6c4.2,2.8,9.8,1.8,12.6-2.4c2.1-3.1,2.1-7.1,0-10.2
			C1080.9,78.3,1085.8,77.9,1088.9,74.8L1088.9,74.8z"/>
		<path class="st1" d="M1070.5,31.2c0,3.2,1.4,5.2,4.5,5.7c-3.2,0.5-4.6,2.4-4.8,5.4c0-2.9-1.2-4.9-4.5-5.5
			C1069.2,35.6,1070.1,33.5,1070.5,31.2L1070.5,31.2z"/>
		<path class="st1" d="M1081.8,41.7c0,1.8,0.8,2.9,2.5,3.1c-1.7,0.3-2.5,1.3-2.7,3c0-1.6-0.7-2.7-2.5-3.1
			C1081.1,44.1,1081.6,43,1081.8,41.7z"/>
		<path class="st1" d="M1084.9,25c0,1.9,0.9,3.1,2.8,3.5c-1.9,0.3-2.8,1.5-2.9,3.3c0-1.8-0.8-3-2.8-3.4
			C1084.2,27.7,1084.7,26.4,1084.9,25z"/>
	</g>
</g>
</svg>
